<mxfile host="app.diagrams.net" modified="2022-02-14T13:02:18.417Z" agent="5.0 (X11; Linux x86_64) AppleWebKit/537.36 (KHTML, like Gecko) Chrome/98.0.4758.80 Safari/537.36" etag="qBZ-gNeErYuNw9v7lSM4" version="16.5.5" type="github">
  <diagram id="wqSMCogbWmVzQRcRAb5t" name="Page-1">
    <mxGraphModel dx="1069" dy="658" grid="1" gridSize="10" guides="1" tooltips="1" connect="1" arrows="1" fold="1" page="1" pageScale="1" pageWidth="827" pageHeight="1169" math="0" shadow="0">
      <root>
        <mxCell id="0" />
        <mxCell id="1" parent="0" />
        <mxCell id="pvMw-32eOwfr4TiHnG_3-1" value="" style="shape=image;verticalLabelPosition=bottom;labelBackgroundColor=default;verticalAlign=top;aspect=fixed;imageAspect=0;image=data:image/png,iVBORw0KGgoAAAANSUhEUgAAAqsAAAIhCAYAAABpMPNPAAAABHNCSVQICAgIfAhkiAAAABl0RVh0U29mdHdhcmUAZ25vbWUtc2NyZWVuc2hvdO8Dvz4AACAASURBVHic7N15fJT1vff/1zVLJstkJSxBZAsJYROVIIKIS3u7Q7VWpVZ7t3ZBz2n12FPuntb2SE+tPf7oXas9VWmrPa1dtP21PUVFRUVFEKgEF0AgC2EPa9bJOtv9x2SGBLJnJtc1mffz8eCRzMw13+szyWR4X9/re32/RjAYDCIiIiIiYkE2swsQEREREemOwqqIiIiIWJbCqoiIiIhYlsKqiIiIiFiWwqqIiIiIWJbCqoiIiIhYlsKqiIiIiFiWwqqIiIiIWJbCqoiIiIhYlsKqiIiIiFiWwqqIiIiIWJbCqoiIiIhYlsKqiIiIiFiWI1oNrXt3B+u37IpWc3HD7XZ3ef83v3LtEFciIiIiMvwYwWAwGI2GVjz6Z1auWh2NpmSY6S7Q3/O5K4e4EuvSQY+IiEjXFFZFJC7ooKd3OugRkeFIYVVERBKGDnp6p4MesRqFVRERERkWdDDSu3g8GFFYFREREZGoadz9bFTb09RVIiIiImJZCqsiIiIiYlkKqyIiIiJiWQqrIiIiImJZCqsiIiIiYlkKqyIiIiJiWQqrIiIiImJZCqsiIiIiYlkOswuQ0/Lc9dhtdmw2G4FAgEAgELN9tXnbzrqvyZdKkz8lZvsUERER6S+FVQtwJ7UxZ1wDLpcLwwAIh9RYdnwnd3FfAGjs9Zl+v7/fewsGgwQCAdra2qisTqWu1Umjt6sapKNxGY1kpbSRk9r9z7yt7ewDj0ZfKh5faq/th38vZmrztnG0MdPUGkRExLoUVi0gI6kVh8OBYRjYbNYfmTHQGgOBAIZhkJ/bQlNTNcfqghxqnRjd4oaRi/IOkZ6ejsOR1OPPPC0t7az7sgHo/0FFLASDQXpa1dnng4K2Exyt8VNWN2YIKxMRkWhzu91Rb1NhVYaczWbDbreTYtSQFKynzcgwuyTLGZlcTVJSktllRIVhGBihUwZdstls2Gw2slNbyW05xcnWEUNYXfwZ625g8ojm9jMx3f9c+6unA4ruBAKBAZ1p6Ynf7+ewJwufz8eh+rMPxORsaY5mMpK9OOynOz3MPmPSnYEMcQsSpMqj/ycSmcKqmCop2KCwKhHZxhFOorDancLsY4zKMHC5XDgcjrg4EzMQbrePtrY2xqbV8I+qcWaXY1nJhodz0usZk2Vvf08EsNvtnB5KFlsDD8T9f9/ODDRwrDbAR0c1ZCgRKayKqZINDx6zixCJA8mGB7ejGeh9LPJwYBgGDoeDXJd627uTHjxCpisJw0iNai97Xw31wVJuup88T716WS1uzsyJUW8zau80Z5IzWk1JAkkx6s0uQSQuJBu9X/woicXt0HtCrOei2ZOj3mbUwqoryRWtpiTBJBvqWxUR6Q8XnmEzrl2kN8NzwJPElf/42idp3P1s5N/yZUvMLklExNJcNJhdgsiQidqY1YsvmBKtpiTB/PC//of/87PNAAqqIiJ9kGwkXlgNXdClPrZEFLWwurC4IFpNSYLJth2hzq/5NUVEuvPCM9/iygUzI7enTZsGJNaKgwOZXk2GB80GYBF+vx+HQ78OERE525ULZpJWdGfk9vihv/hfxDTqTxdLWblqtdkliIhYWgZVZpcgMqTUlTfE5s8pZGFxUaf7DpSWcOzAdp3iEBER6YL+f0xsCqsDNGlE24AmRC4c7ef4wZ1seG9P5L5MVys5aQ5TJnWOB8uXLWHRvGms37Krz89Zcf8tnU6ZWcULz3yrT6+j4uNNHD+wcwgqsrauDu56s2HrbjaVlMaoIhExg8JqYlNYHYAF5x7F7Xa3L2vXP8cP7ACgcHTHe20kwogMm82GyxWajzc1NZURI06vSjON5sj3OzY+z7WnryNgx8bn2bEx9H0gEOBkg8HxevD5fd2uZLLi/lui/wL6YFxGI2OybIxwB7o8mHniJyv63FZ6enoUK7Mum82G0xlaVMQwDPK9vshjXR3cdedUo42v3HkjC4uLLBlWBxK8NSxGRERhVeJQTpqfNEcrzc3NZHGYvZ5xtGJ+sMtz1zM+swl3mhtQL3lf2Wy2SGBNTU0lB2/ksa4P7rrm8/nY+sZvOF4PqXYXTX5rLUu6sLgoEj6zUwPkpAWobrRR09T1geoLz3wLUGC9dO5UpsxY0Ot2i+ZNY/FdjwxBRf3XuPtZVjz65z5vb9UzQ1Zw6dwiJhQWd7pPZ1OGPyMYxb71RPnjGkzPqgxOIBAgEAjQ2hoKqx6Ph9raWqoc8ztt17j72SF/P+a565mU3YTb7cYwjCFfNzvR+Xw+fD4fLS0tHDt2jL3e880uKWJ0ai1FY/y4XC69N2Jk1PiZXfbAB4NB/H4/Nc0O6lvM6Z/p6fNoXEYjDoeDXHeAkVryvluBQAC/388pj536ttMrZi6cOxWgT2dfOurpQFEGZ/myJVE/u6meVRkWsrw7qXXOMLsMkbNkUEVeSjOQaXYpw9rxAzu67IEPBAK0tbXR0tLCh1WZlulxzw3uZlxuEqmpqSQnJ7dPXagOkO6Ez8CMyYYxAzz70lH4ffHegVQ8bVou3up0WCHDgitYS5r/kNlliIiFpdqbzC4BAGegnqRArdllCJCe1Gp2CdIHCqsybLj9+3EG6s0uQ0SkRzm+7WaXIBJXFFZlWNF/AhKmAxexoiyvpqSzCk2HFT8UVmXYMes/A6/X2/tGMmSSggqrYi1p/kO4gqHT/+Fp/MQ8gUDA7BKkjxRWZdhxBWvZvHmz2WWIiEQ4A/W4/fvNLkPaqVc1vmg2gAFobm6msbExKitOpaamkp6erqlsouz222/H6ZiF16a5YETEfBqiZC0Kq/FFYXUA9h1tjpzKGYzMzEwyMzMT4o8mPAdmXV0ddXV1NDY2Dqq9lJQUnE5njz+7NP9Bam1DN52Vz+vj8OHDtLYO/urSzMxMcnJySE9PH9bz+QaDQYLBID6fj1OnTg2qrUAgQHJysuV+XqHetFFmlyEm+uxnP2t2CSJxTWF1AGoc08n2fRyVwJpoXC4XbrebYDBIU9PAp5Fpbm6mubm5x21cwdohnX+1yZ9Csi8606BkZmaSnJwclbasLBgMEggE8Hq9OJ1Oqqqq8Pl8vT+xF06nE2egDuzjolBl9Bw7diwqZ2QA3G53wizJG8+cgXq2bFGvqshgKKwOUI1jOmn+Q6QHDphdStwKBoNR+4+7O65gLc5A/ZAMB2gzMmg1sqJ2EJOIg/8dDkdUwqrX67XUweSpU6c4evTooNtxu92MGjWqwyTyw5fP56OhoYHq6mrq6wd3sVxKSkr7wd/I6BTXR85AfY+n/z0eDzU1NYM+G+NyuUhNTcXtdpOdnW25swvRFAgEonYmJikpCUiKTmESU8P70y7GGu3j8NoyyPHtMLuUuBWtwGoYRrdDApKC9XgZmrGrjfZxuHzWCUliPr/fH7UDD7fbHZV24kVKSgqZmZmDDqvhMzH1jnMgtsfHnaT5D/ZYUzTY7Xays7NJTU3F6XRGpU0rC5+Jqa2tpaWlZdDtVTuyhvQ9IQOjq3oGqc3IoNoxk1Yjy+xS4la0xuzGupe2L9qMDBps480uQ0TO0Gpk0WYM3QWXHaepOlO0PqvCY75lYKodM4f0PSEDp57VKGgzMmjrYRyrzWZj5MiRkdM0DoeDQCDAiRMnTKjWmnrqYU1LSyMpKQmn0xmZNaG+vr7LMa899bAOlUb7uG6HhzgcDtLT03E4HNhsNgzDwO/3n/Ve8Pv9Q1GqxNgLz3yLL9+xJCptmf2+jnc1julDur+Fc6fywWZNVWVFrUYWjfZxCqpxRGE1imoc00kK1p81LCAQCHDs2DGys7NpbGyMBK5Ena4qNE7obD0F1qysrE5BPzU1lb1798ayzEGpdszsdnhI+NRmUlISNpuN1tZWgsEgJ0+ejGyTyGG1u/dBZmYmo0ePJiUlBZvNht/vx+PxcPDgQcsuyHDlgplmlyBgytmOy+ZN44PNa8+6P5q9qolqMH/vrUbWkB+4yOAprEZZeFhAV0Glpqam021dzds3jY2NVFZW9nl7K/Sudnexlc/n48iRIxw5csSkyuJXXV0dDocDh8MR+R03NDRYNqj2xuVyMWHChLgK31YxcuTIyEVEfr8fn8+Hx+Pp9ufWaJFZIboLquHXk56ejtPppK6ujhMnTtDW1tbl9mZ/vllB+EJMt9tNWloabW1tNDU19Xixmk77xy+F1RhoMzI46lzQ6/RWidx71p2huOBqqOhiq+gb7BXAVtLa2sqpU6c6he+2tjYF1V64XC5yc3MjU7u1trZSV1eHx+PpcvtqhzV6t7v7XOvq9TQ1NXX7+dXT51oina0bN24cmZmZ2Gw2vF4vTU1NuFwujh071uXPSEF16DiTon+hn8JqDGk+1rPZ7fZepyYaLoE1fLGVpjdLbD29l4dT+B4qra2t7Nq1q2/bDvFFVQPRn9fT2+eZFS4yHSonTpygubm523H/YTrtP/RcSa6ot6mwGmM1julcO7PrKUrq6uqGuBrz9fXIPxgMkpeXN+j9eTwePANfe2DQGu3jKBjV9ak8ia3h9B+32WcJ4pXVT//3h94DnTU2Nva6EqKC6vChsCpDYiAf1tEIq1VVVWBiWIWBvY6qqqoYVBI/xowZE5Xf/8uaAjlhWaVXVUHVHDrtP7xENaw6k5x42zTeSs42nHq5RPrjggsuGHQbVVVVCX0AM2bMmH4/54NTk2NQSf/k5eVF5aBr27ZtUahmeOnpPfHxyVwFVRN98yvXRr3NqIZVV5JLYbWfvF4vLlf0x3eIiMS7cI/iQALfBxoOPKz19J744FTKEFYiQyFxLh20IIVUEZHuRWuZWhGJb1ENq3NmToxmc8NeeKoSERGRgVCnhySCqIbVi2abP0ZIRERERIYPDQMQERHL0uIpIqKwKiIilqWwKiIKqyJiGk1pJjI4drvd7BJEYk5hVURMo7AqIiK9UVgVEREREctSWBURERERy4rqClbSPx6Px+wS4lbHpSejsZyhmcKvJd5fh4iISCworJrE4/Gwo/wE0yblmF1KXKmqqqLseBItrQE+u/RCmo/sw53eypZ/HGHSpElml9dnHo+HfUebOdacxa2fOp/mI/tIGTuaV1e/x9QJ2WaXZ1lVVVVUNefgaQgd6LnT3RSMbCM9Pd3kykRio+OBuUiiUlg1gcfjYVtFK9+5awIvvdlgdjlxo6qqimCSm+U3e5k9HmAbTAw9duOsJI7UnOTF93NNrLDvnM467r41j+lZVcDx9tdRzc332ik9eJI/rtfqZmdKSqojf1IWD13jw1vfAoAzI5lfv+LA66/F680yucL+OTN456QFmDA6WcG7Bx6Ph4aG05+ZVj0bsXzZEuBIj9tUVVXRZssEIClQh9vt1u9epBsKqyaoqqri3z/joDCrhZdwm11OXPB4PHzp9jzGGYe73WZsdit5Wa1U1Vp7+UGjZT9fv84BdN1jUnhu0tAWFAeMlv184crQx5W3/vT93vpa7lgQ+v6FbSmW/92HJSXVkZ/XxkM3ng7eH9fmUXrQyz+2NzFxTKrJFVqP33+UUbmZjMoNHZQ4M7J54bXDXDA5Ka5CnsfjYfokg9TkLGg5DsmjcGZM4oXXDlMwqsqyAdxqSktLKSwsNLsMGSIKqyYI9QzoVG9/NDQ0MM6oi9x2BFvZsu/0/IJ5WTbGZtuYM6mBF9+3dmDJy2ql459eSaWvw2Oh1yGdfeW63j+qpo48QlWt9YeCpDtO8dmFLYADb31t5P7pWVVMz4JbLsniP59tiKsAFmuXF1S2H8RVd7i3mjsWZPHnjQ4q9sbPz+sbS+o63HIQek3h15LGBx8eYezYsSZVFz+yJxaxo/woM6eMMrsUGQL6X3GIhU9hlR5sM7mS+NLx1F9JpY8n3oSSSj8tqeeTP/fLtKSez+qSNsZmt5pYZe9C48+CABypCfCLda2dXsfe1vNYXaL3RkfpjlOR70sqffxiXSu/WNfKqjdaWfVGC1v3hsJ+vPRIf3ZRS4+Pe+trKczt+RRyounud+utr+XGWSfj5uc1Z1J9t4+FXsspLp6tSf774oFrDpKdXMeRI/Hxu5fBUc/qEOs4A8BHp9IJB5dE43D0760X+rmlccKfQUnlCWbMmMN9X72HnHMu7LTdO2t/AevWRrHS2DhSE+DF973MmDGH73//l5H7b711GQCXXHKJWaVZTuG5TqCFF7Z5yTnnAv71K+cx/+qvA1B9eBuvbfgHf3/1l3yqOMnyw0DODN4llaGlRINByMsyKJ7sYGy2jcWXuPnFOrOqtKYjNQGqagOUVPq5cKKd8VleRuWkALD4Ejff/731T6HPmRQ66A7/7oNBGJttMGeSI3JGxddQS1VVwPKvxQq+//lUlq2s6tQTfdKjPrjhSGF1iOXl5UWu7tz0wUlghLkFmWSgSwT+7e0TZwW8ji696qs89gvrh9WPTqUzY8akbl+HnFZ60EteVoCccy446+eVc86F3HbbhcyYUczff303Y7OtHVY7Bu9Lr/oK3165LPLY888/xXPPreJTxUmMzbbR0BA/p7ZjLfzzygfy58KOHVv567at5GW18ani+OhRh1DgTi24i/zc0OsIBmHnzq2sLtlKXpYtrl6LVZy5Cl51o3qmhyOFVZMcr26GlNM//v5OTzIcjroNwyAY7HvP8pGaAMHg6d7HeLZ/fzV/+cvrZpcRF0oPtjF9emaPwX7mzGJ2zP0ylSV/HcLKBqak0sfd9z/FjBnFne6/7ba7ue22u/nud7/M2OydeDwehdV2P/vV1k63b711GTt2bOV73/sy//NeKzfOte4BSkdzb/z5Wb93WMb3vvdltm/fynsVXlPqiic+X2jYz7FTTYweEboQsarK+r3qMjgKqybxGS6CQdi7d++Ann/06NEoVzQ0UlJScDqdBIPBfoVVt9vNWx+1ALYuPuzjh9vtBuq59dav9rhda2srJ0+e5NSpUz1uF2tjxoyJ+T4CgQB+v5/U1O6vgB8/9dO9trN06d18/fWXollaTCz5wpM9voeXLr2bv//6biA+AphZZs4s5gc/+BXf/e6XcWZkAd2PB7WK7n7v4dfx3o6tjNcEMd0KBAKR7/9SYvBPV4W+V1Ad/hRWTRAMBhmbbeNgIzz88HL+/vf1bNmyxeyyhkRzczPNzc39fl56ejoeTy1BV3yfJutrT1lhYaEl3hNDeVB06tSpfvW0d8XKQwDCejvYmjmzmIqZxazfUdntNo2NjbS0tJx1CtRMZgSGmTOLWbr0bt5972kgvj8bli69m+9978tmlxFXjtQEet9IhgWFVRMUFhay58A+riwOjVn6wx/+wGOPPcbjjz9udmlDrq+9q263m7HZ9dhye17x609/+tNZ9z3wtRv5zpNbu9jaHG53eq/TU913333cfvvtQ1SRdXT1fsjLy6N4cu8fVdWHt8WqrCE3c2Yx6eknz7r/1KlTlj2rEqu60tLSet3GQpl9wGbOLAb6/0J8Ph8ej8ey74toS0lJITk5mfR0o/1smyQCXTY3BM68OjE9PZ2qWhdpriTWv/oLIBRO/vCHPzBv3jwzSjRVX3qH0tPTafDlMjvXw44dXQfPnTt3dhlWraakMp3yfzzd4zZr1qwZklPw8aIvv9fHfvH3IahkcEoqMwb1fK838cY0zpw5s8fHJ2R78Xh87UNsrG3nzp09Ph7+KOzPa2lpaek0y8xw19zczDe+cAGGAR6Pr/cnyLCgsDoEuro6sbCwkD0nxnLRlIz28Wkwb948Hnjggbj40I22vgTWBt8Itu0bRXP5r896bOfOnTz44IOxKC3q0tPT2bZvFKv/+/4uewMffPBBdu7cqXFYHZRUZrD6v+/v9vGnHv23XoOAVTz16L/1us1PV1k/eA+VT37ykz0+frAuCcNIiYuL0Xo76Jqb76Cqtu9L7lppGMhQmDdvHn/4wx+wj5yDYRiMzbbrczJBaBiAiapqXaHVlt4/ybMvfSZyf0FBAR6Ph7KyMhOrG3p9GRJQVevikd8dY87Gq8geeyE551zIzp074yaohFXVuvjtiwd5bcODzJgxo9vXUVBQkHDvg+6Efl6LufSqO/nkJVMAeH1jefvPrdzk6vru9Y3lzJjxLJdedWeXjz/16L/FxdjboTBmzBjWrFnDvHnzmDFjRpfbTEr6iHe88TEFYPhvvKvX8s7aX5KXlUYwObdPbSVaUL333nu57777ANi+8UkWX+jk+deaFFYThMKqRbndbi644ALKysoS6hRPX8ewllRmQGU5ED8hpStVtS6qNnb/OtxuN263O+HeA92pqnXxpz/9iTgY7dGjx37xd17fWM4nL5nCpVfdSfXhbby+sZx31j7bbVBNtHACpy/aevDBB7n11lu59dZbI49VH97Ghtee5bUNB+Iq3D/4YOgA9dZbb42E1or3fsWG1/5MSaWCalceeOAB7rrrLiA0L62jeRdlh+yk5fY8RESGD4VViysoKKCqqiphBs9D/+dfHe7y8vLUuzoMhXvZOo+1jZ/QFWtnjtkOHaSEjlI6r1QWfz+zroct9W08cyIFVbfbTUFBAWvWrGH//v3kZbVSc2QbR2pGxdUBigyewuoQqG609XvS/zMlYu+ax+OJyvjdt7fsikJFAzfYCavdbjdjxoxJqAMWSWxut7vHv5lEDSqJFFTHjBnT6T2wc+dOQoOkBneRosSWM8kZk3YVVodATZONxsZcnIHBTFqdA7aep22KpoVzi9jw3u6Y7sMwjC4/fNN8+wCi1ptYdjwJ7OOi0tZAfHwyl6NH3zdt//Ho6NGj0QnnzgWDb0OGnMYhni1Rgmr4QCURLzQeDlxJsTmQVFgdIm1GBm32+DkiPG/ulby6zZye3AbnWFP2GyttRgZH4yA0zZ9TyHf++SbWb9nFylWrI/cvX7ak023pu7SiOxnj1YFKfzU0NNDQ0DDIViZHpZaBWLlqNWn+Q+SlegZ9Vs3j8SRMUIVQWB3M79/TnANkRbcoMV1Uw2qsun/FPC888y0W3/UI8+cUsqmk1OxyJIY2lZSyvsOQieXLlphYzfARywMVw9b17IOp3gP9aid8JqXjGZWhOLvSnYbjg3u+15YxkPn1o8pry6CqCWgabEuxP6t25u86Hn/34WsdGu0KqsNRVMNqrLp/ZeituP8WNmzdzfotu1i+bAmL5k1j8V2PmF2WxNiK+28hrSg0pdKGrbvZVFKq0GphwUDXy0029nPYS/hMyqvbPGAfF/mbf1V/8wMWL2fTImdO7OOYP6eQhcVFAKadWZP4ds/nroxJuxoGIF0KB5Zwb6pOAyeGT37uB51uL1+2hA1bzelhkaGzctXqyFkUDftIHPPnFLJh627mzymM3Ldy1WodoIrlRDWsXnzBlGg2JyJDrONQj00lpRr6kSDmzylk/ZZdkfCisJI4FhYXsWjeNB7++d9YWFzEwuIiHaCK5RjBKE9oGe6RExEREZHEsXzZElbcf0vU2+16dL6IiIiIiAUorIqIiIiIZSmsioiIiIhlKayKiIiIiGUprIqIiIiIZSmsioiIiIhlKayKiIiIiGUprIqIiIiIZSmsioiIiIhlKayKiIiIiGUprIqIiIiIZSmsioiIiIhlKayKiIiIiGUprIqIiIiIZSmsioiIiIhlKayKiIiIiGUprIqIiIiIZSmsioiIiIhlKayKiIiIiGUprIqIiIiIZSmsioiIiIhlKayKiIiIiGUprIqIiIiIZSmsioiIiIhlKayKiIiIyKC53e6YtKuwKiIiIiKWFfWw6kxyRrtJEREREUlQUQ+rriRXtJsUEREREYu7+IIpMWlXwwBEpM9uLq7mlUd83FxczaxCHZiKiMhpC4sLYtJu1MPqnJkTo92kiFjA96/dxh0Lqmk+vI87FlTzo1sPm12SiIgkgKiH1YtmT452kyJisqVXBjmvIIMjLeOpzb2fipZZeOtrWXpl0OzSRERkmHOYXYCIxI+svPOZUFBAamoqHNiOt74GyDG7LBERGcY0ZlVEerXzUDIAhedmkJGRQf2uxwAorc8zsywREUkACqsi0qvtpa18+8/jMAwbNpuN3DQPf91TwPbSVrNLExGRYU5hVUT6ZHdVMs9uyADgpsen8OyrGq8qIiKxl7BjVs8ZmULhhGwMswsZIl6fD5/Xx6ad1WaXInHInz6KQN5sNrZNpakkBe/EBTj3vWt2WSIikgASNqzOnDKaW66a3ut2fr9/CKoZGk1NTRSMep/X3jtClSfD7HIkDixftoSHdo/HP30epMB6B6yvBT51D976r2D/+B0uc+3i0mkjWblqtdnliojIMJSwYbWv7Ha72SVEjWEYpKSkMD6jgXPT6znUkMkRT7rZZYmVFS7C7x0NbiCJ0CdGALADXgf+cXMJ4GPF/f9LYVVERGJCY1YTkGEY2Gw2zs2op2jECdxJbWaXFHXLly2J/Avfbtz9rMlVxak2L/ig05gZo/2fw8FbZbXm1CUiIglBPasJxOHo/Os2DIOsZC+ZrhPUtSZxqCETT1uSSdVF38pVqyNhdeWq1SyaN83kiuJP5smtTPngHyRl2LA5wbAbEAR/WxB/K/iafJxoCAC3mF2qiIgMU+pZTSDdDWkIh9YZuScoGnFiiKsaOovveoT5cwrNLiOuZJzaSui8PxBs/zY8CYARup2/40em1CYiIolBPasSEQ6t88Ye5kB9etxfhLV82RI2bN3N/DmFLCwuAtC4yn46OP5Wyo+OgOxRkAK4CI1XrQNaAlBzGHvLKHOLFBGRYU1hVc5iGEbcX4R1ZijdVFJqUiXxbcVnpvH9d/eHLrDKBJxEOlpx2OBEM46qHeYVKCIiw56GAUiXOl6E9dVrc9n43L+aXZKYJRg4feo/zCB0n68Ze2uTCUWJiEiiUM+q9MgwDD766CM+/PBDs0sRszz3aTj6QdePjT4Pss4b2npERCShJGxYbfMOv+maEknHcagDpfGrfXTuAvjW+5BDaBhAEGgEDhyAl38IHvWsiohI7CRsWE1UTqfTzRr+ywAAIABJREFU7BKi4qp54ygc7yQQCLBx40Y2btyIYRgEgz2vV9/a2sqEqXO59957FVb7au4/dX1/9ngoXgZvPTq09YiISEKxfFgN9aCFphtauepFk6uJf/EWVpdeGcRbX4MzI5vn1p2elf7T111KMBgkGAzy5JNPkpGR0WtQBWhra2Pz5i2cP29Xt/v60zt+7Ckjo/o6zjRjfB0XnH8uv1tdH9P9iIiIxDvLh9WFxYWsuP8zADgOvc7bu70cqAmy591n+t3WQ/96N/tOBninzBftMoe9HTuG/orvH36+kelZVTS6LiIrK4vZU1P46IALgNTUVAwjFF6LioqYPHkye/fuZfLkyeTn5/PUU09F2rnnnntYu3YtkydP5ve//z23f/pyJp+TwWevvxAAv9/PrXN3Yq/bDcAdC+Dbf05nd1Vy1F5L5pgURhflYhhQNKqeablBzq3fytLv5vDNp91R3VfUvfcEPPHE2fdPuhxyQgeS697VjAAiIhIblg+rK1e9GAmrAJcVhXoG929dw4TxY/vWiM2A3NkATMy1MTE3ieSs+OphNFsorOYO2f5mFbqYnlWOe+rXmTX9CjIyMrikQ69wdXV15LR/RUUFe/fu5e677+bJJ59k7969kceuvvpqACoqKsjPzwfgP//zPwFYeuMVBAIBmpubaWpqYu/evbz77jqunHqcH39pLzc8NPgAmZmXwgWfmcmEeZNJSkvBMAz8Xh+HGjzsPnqClL0f8OMv7YvKvmLqmgfhsytOj1n94C348C04VQXA+i1n91SLiIhEg+XDanee/eNqDMNg4pRCDuwt63HbhZfO5dLFs4eoMomG2UWhHtTD1U6orCQjI4O2ttBFcdnZ2dhsNmy20Mxrs2fPZvz48fzmN7/hU5/6FDabjaNHjwKwYcMGqqqqcLvdHDt2DJfLxeHDhzvtq76+nvr6ehobG0lJyWbjtveZPqaWaITzWUuKmHL5dFKyM7A5HGAYBNq8JLnTcLhc1BoGT2+rj1wwtmHrbuvNCTv3n6BgRuf7Ci6HMZdD6bZOY1bDy9sC1nwtIiISd+I2rAIEg0HGTy5gfH4hG157yexyJIp+t7qem+8F775f8JvXxzJ9TD3TRh/l31+ZwfbSVt787dex2WwYhsHmzZt5//33cblcvPLKK2e1VVoaCkx79uzB7/dz2WWXcdf9/zdygdXNxdXcsaCamuTF7Np1kEsnN/LhgZSovI6xM0bhTE3B7nJhs9vBAJvdTpAgNocdR1ISVSnnALBo3jQgvhcwWLlqNcuXLYl8jefXIiIi1hDXYRXg7VdfZNFVN/Dt/6+LMXXAR5vfgpbQevcT8gvZX6H/POPFt/88jh/dcoibZ4d+Zw/+fQLb97cCoTGSBedmAnDhhReyYcOGPl1g1draetZ9f9maw6xxzcwe/wI3zQJnRhaPvzMBOHvbWLA5HGwsKbXsqfRz9zxJat1ILvjgP7AbBkHgyJhFHBl5Ga3HqjjRYdtwz2rHHlYREZHBiI+w2rgHgPbraehDJonITHeDMzQPpMLqwIVPwQ+l3VXJ3PT4FJxOO16vv9NjO8qPUV/fwIb3djF98kj217ojF1z1ptk14az7VvzPOcwqdDG7yNV+hf7Ag+ryZUvYsHU3C4uL2D9EgXco7Ljk3zHsBgTB3xqElrO3CfeoagiAiIhES1yE1RX/9TYAGw7lYms8ysRcBxNGhNZ77E9wlfh0ZlAFmJI/hRX33wKEelnHTOzfKkqL5k07a57V7aWtbC+NTrhcWFzEylWrufXxq/u0/ciJUdltTByceg9MnQGZQBIQAJqABmDvx6Qe/lFk245BPfwz6K+OCz6sXLWa+XMK+c4/38TDP/+bArCISAKKi7C68tfvdrq9scxH4+7/BmDDhk28++67lB48zqhRI1myZLEJFSaG+XMKLRMWVq5aPahJ/WO5IMCw61W0O8Ag9C/M0X7b4eq06aJ501g0bxoP//xvA15hrGPIDY9/teoQCRERCXEmxW6WpbgIq11Z9+5OrlwwA6/Xi9frZc+eUjZv3sLq1S8ydWohU6cWKrhG2cLiouEVwmLISsF+0PzdDAHpYtTF4rseiXw/2Nc/f04hG7buZv6cQl2wJRHzLijgld/8m9ll9MsPHv8rP/mVLgKW4c2V5Op9owGKeliNZbLuaP2WXaGw2lxPZloS+/bVRubW3LOnlD17Slm9+kW+d/9Xum3D5/PhcMRtXhcLG1ahypUOPqAZ8BIaBuAjNKzX5sCfmhPV3YWD6aJ501h81yORi7U2bN0d1f1IfOh4sV4gEOC7X7/JxGoG5nv3fhpAgVVkgKKe1GKRrJcvuwGAja+/zLsVnccvJtvhvGmFfO1fvsGePaWUloZCKtCnq8NFoq3j6W9fS3xfYLXipWNMOfhrkmpt2JLAsIUusAr6g3ibwedpo2LqFYRS7MDlj/RROPp0Gzs2Ps+OjZA/0hnTIRtibeGDlvAwkAsmJ5lc0cB9795PK6yKDFBcdCuGV7B66NDrXFbkZN/JALb6yrO2C5/+X7z4hsh9+3duHbI640FaWprZJQx7HcPVp2/r4yprFnXunqdCK1bB6a9Gh9ueo1yw+dNw0fMDaj87NcDFk7sP9IWjvRSO9rJ5r4uaJtuA9iHxbf2WXZG/qd/96NMmVyMi3bnnc1fGrO2oh9WLL5gS7SbPMjHXBvUVPPSvdwOw6KobenmGiEmCQfxeLwFvqNfQMAwCfj9Bf4BgIIDV+/4PTr2b8uYcGOmEFEKfGAFCHakNQHULjLqJJTT3u+3egmpHF09u5eUd0VmoQeRMa9asoaS8hfTAAQoKCigsLKSgoMDsskTOMjG7kYvnXRjTfWwvP8nO8lMx3Ud/RT2sLizWH7hIWFNNHU0nqgn4fCRnpHPZObPZ3lTD4WM7aG1oJNDmpc3TSFOt2ZV27e3NOyH5EvAT+hfu3AwSCq3+AAR8A2p7yqj+DR2YO7GV9/bFbgC/JKYPXrqPzMZ97P/Axl+25gDbuXyGk0e+/w0KCwvNLk8k4oKxNeSktvHFT83ofeNB+PXfdw7/sGpZLcc73Wxq7n9P0HDhcDjw+QYWMKR/Nv1mDxffGSDjnDE0JVfzt70HCPj9+Fpaaa6upf7wMZqr62jsZ1g9c7aB+XNC/6l2nJ80GmzHSyFtCvjzIMUJbiANOA40NoHnFPaaA0Bev9rNTg2Q6w706zm57gDfu/sKfvDUm/16nkh3nv6vr1Fz5H0A7ljg4IvXBPjm027e2gnfevAnCqxiuonZjWSntJGTOnQL82wvPzlk++qruA+rl153C5tLPqD88Elyc0cwdepUpk7Vh4tYQ11VMxuf+ZiCi0qxJzkxbDaCwSABrxe/18e5jjq2vZfa73bD04iF5yH9zj/fxOK7HoncFy2XFo3gnT89ifec85iR3Uz6yHHMKxrLGxX/YMcpF/a6KhwnSulvWM1J619QDZs81j28pgUTU93zjV8A8PzzT/HU86tYMqeaH38Jvv2nTN7a2UppaanCqsRUeNGTHTu2c+P/Op8Dh45w8OAR/viHZ02ryWq9qjAMwmog4Mfr9bJr125qamqA0EwAS5bcEAquM4rZX7LG3CIloXlO+tjwk1+TVnQnswpd/Mc1OzEKvkP14RKaD7/M/E+dwwO/HdyFb7GaNH/D1t1859bw+Kh0zp+WxqKLxpJ1Kp2bAZjQ/m9oPPbYY/xg5apO87mKDITdbo98f9ttdzNjRjHf/e6X+VSwmqUXp7C9NI2ysjITK5REsLC4iGP73uf11c/yuiY+6Vbch9WNr68Bh4uWltbIPKtA+/RVL/KrX60yt0CRdo27n+Xzd1zP1r0+MgIfMmvWFVz2hRWsfWI+y5d9gxX338KKR/88qH2Ee1qjZVNJaadezK9+9jIWXXT2UrUi8W7mzGKWLr2bivd+xdz8KmAKR2sHdgZARKIr7sMqvhbwtfCznz0FwAsvvMiePWXs2bNH86yKZaQV3QnAzcWh21dcsZA//vE1duzYQYHR+/KxRXktzDinCWdGNs+tMyIT54cnyp+UvZubi6upOfJBzF+L2X9X67fs0lAAGTS/39+pdxVg6dK7uen5VczNd+JvPsGiiwa2ZLCIRFf8h9UzLF58A4vPWGW1tqZuCE9UinSvtD6POxZUc+pQKQ899BDP/d9r+Li15/GeRdn7+dEt4Svnq5k1Lo8HfpsWCbc//HwjeU1ruGMBwDo8V+bz3Lou1kIdpFmFLqaNacLn8/Hid0/yzafd7K5Kjvp++kJL/0o0BAIBbLbO8/ca7X86V81L1nhVEYtIiFm266rrzC5BBIDtpa18+8/j2FbyCm/+7lqOtqb2Ol71zsW5HKkJsPHYTFKmfJHpWVWdHp+eVcUL27xsPDaT7LEX8oWr/d20NDifyd/EpKxj1NTU4K2v5Ue3HKIoryUm++qOx+MBtPSqRIfP5yMQ6Hyq/5wcGyc8afzowR9qrlURi4iLntUVj/7/TBrpxDAMIIjO7ks8212VzAO/hdAcUL37l+/8lYaGBgDefPNNDp4aF3nsvi9ew/w7lzD/TnC5XKxbt46qqjeAo1GteVahi/MKMjh27Bit5eW0jv4a6cf+ixnnNA2od3XU+Ols2/Tr9r/pvgsGgyyapzGzEj0+nw/DMCI9rDff/BUWfOIuk6uSRLFh626OjmiK3E5LSyc1zU3uyDE0NzWwr7LcxOqsIy7C6spVL0a+v6QgVPLlRU6CQfPHz4nESmaKj0yXlx/9+6cZPzV07X1FRQXUnGJ8Vg4AJw/vYnV7bquoqOCjjz7i2sshtNxU9B048CFNyRexbds2Pn3ewNvZVFLKuj/+kcV3/Fu/nrdwrsYQSvQFg0H8/tAZCQVVGUqbSkr53Ocq2RacTWqq2+xyLCsuwmpHG8tCk9kvuPIaVtz/GfbtO8if/vQnnnnmv/s1z6q3uSHWpYoMSqbLy+QRzWwoAUr+0OGRFCaPCC1qcbjiff5Q8X7kkRMnTvDgT33giO4KJ9tLW/lwegrFk5vxpZbjzq8AYOfh/s8RG/bA42t57jc/69e0W4vmTePhn/9twPsUEbGa1DR3p6Da1OihsbGBkyeie4YsnsVdWD1TT/Oshr4u7vJ5Lpt6ZGV4cgVjM0b7Lx9PxplRzXTeIS8vi28+PW5QF1htKint9/ywD//8b7qwSkSGlU17/NS3VdHU5KGp0WN2OZYUF2F1/oXjWThnPBtKDrBp24FOjx3aV06wqYbx4ydQW1t7xjyr3YdVkeHK7/fzwrPfivrE+dtLW9lemgZMiVqbGnsqIols+bIlTB3dYuqKVfEgLsLq67/7BgDPPvkEm7ad8aC3BVrq+PrX/wkIzbMKp8OqSCKK1YpWIiIiQy0uwiq2rNBXI5lvXx867Rior2T9q2cH0sWLb+j0VU7r75XXIiIiImaLj7DabkJ+IfsrQuPVbPUVrF9bYXJFIiIiItGVlpaOM8lJbU212aVYQlyFVREREZHhYuWq1Vw/8yRpaemkpKaR5k6PzAzQ3NSgsNoubsPqhInjuPN/33z6jvrux+gtuuay02voicSZe+65h4qKCtauXctVV11Ffn5+5HbHbZ588kkTqxQRkf6aVeji5gVBth2L3oWrw1H8htXC8yFjmtllxKWMjAyqq3W0Fi86BtXw7Y7y8/PNKEtE2oVXwAp/9Xq9WrBG+mR3pQ8uP337xHFNYdWVuAiraUVf4NwcG+NH2JiQa2fiCBvvvPYi77z2IhOmTMUADuwt61NbNpvRvlxraMUShyMufgRRYbfbzS5BBijcmxoOph17VeHsACsisRP+LO3uM9Vms0VWxBLpSfF5+bjHj2fXus1ml2JpcZPUDlYHOFgdiKxgFQ6vl2b6ufziaYzPL+RARWmvodUwjPYRAYY+TCRu9BRGFVRFYiccSMO9piLRtLC4iPq2FkBhtSdxE1bPdDq87uA/f7+DpVdN42Bl33pXw26bGqPiRKKoYy9qd8FUgVVk8DoGUp2JErGOuA2rZ3pubf8nQb8tBnWIiEh8UK+pWMFDP/sb+SPMrsLahk1YHYhAIJBQg+ADgYDZJYiIxFxZWegsW0FBQeS+My+CErGq3JFjMAyDtLQ09lWWm12OJSR0WN3yQSXT83MH3U40VobqTxt92barbUaNGoXH46Gurq5ftYmIxIOysjLWrFlDQUEB1113HYZh4HQ6zS5LpFs/feYlHr31OBsq88kdOabTY81NDWdtf8n84qEqzVISOqz+8Y2DpG+oICOpjczkVjJdbX1+bryOZwoGgwSDwUjPQvi2WNePf/xj1q5de9YMACLS2Zo1aygtLWXKlNCclepBFau77RIPrfZxZwXVpkYPdXWaYjIsocMqQENrEg2tSRxuCK0Yke5qIyMpFFrHZ559VBM2XGYSCM2OEOqFDYdWhVdrqaiosMwFVMuXLRnS/a1ctXpI9yfx66WXXmLPnj29bldWvo/SskoKCyZSMGXSgPcXrXYksX14JIsrCw/xj7IkAE6eOGpyRQPndrtj1nZMwqozyYm3zRuLpmMuHF6BSIA9Jz00OW9P4TVedQym4dBqGIaCq4VYaWWqt7mQt2rPAbvBlO0/An+A8klfxrnnDWifEi7r5D/IPLGZ/dPvO/3ETT+F+f9y9u1gkEDOBCZ53gYblM/4NhCE42U8WLB7iF+dDHdl5ZU8+vgzBIOh6xWe+q+HB9zOTx57Ggj2uZ0fPP7XAe1Lhrdrrria37/xSyB+Q+pQiElYdSW54jasdiUcWod7eD0zmIZ7XRVYzdHU3EQw2Hn8cW/fx/q051v1Y2FUMhjgSDEAO4wcj/fcL7aHVch5bz8jUrMo/8T/Dt3xygo4+QGEbwO88IXQ7SDQ6sfx8frQ96Ncoa/2SXAOgHpWJXr2lO4lEAidFTMMg9KyvRQWTB5QO8FgYNDtiEjfJPwwgIHoGF6XL1vC5BHNJlc0NPaeMruCxFLfksTWsjpmFyVxwyevA6C8vJwk/4c8+1pozPTCuVO5bF5o2eHqw9uoyajkI9foAZ8+n1Xo4jP5mzivIAOAj2vzeOC3aac3GJECGUAQHCnt96USuq99ZIwjGeomXQbhM0JJQNHlp2+HRR6340g+4762NHCmdtq8KK+FH3/Jg7e+FmdGFt982s3uqmRE+uq6a67gpZfXYRg2phZMHnDALCyY1H4wP7h2JLHMn1PIwuIiIDTEaaiHVcXaxRdMiVnbMQmrc2ZO5O3NO2LRtOVoTJ3ESpuRTps9nddeeJaamhqqq6upqKigenspT7+Th9frZ3zBhdxwwycAyMn5PFu2bOGmk49xw0MD2+fN0/dy3vgMSip95OcXc17hSFb+nzy27WwB4GknYAcMMOxGey8ooUDazpbU3sUazppOYMZlp2//ZUXoazjs+sGwGaGeWQehNp0Gx46f5NpLToeA/z13O/v3V1NVG2DOpFp+/CW44SGFVek7m83Gkz/74aDbKSyYzJM/+yFl5fsomDJx8IVJQlhYXMSGrbvZVFLK8mVL2LB1dyS8DgcLiwt632iAYhJWL5o9OWHCqkisvPDMt7hywUy+eM//YcLo072Mea4cbrs2jd+trueXz7/D+KQd1HtzIo+PtA98kPvs8c1s3etj7tUPc9555+FyuTg/EGDpjaHHn36eUKgMtv/raha1YC9fp10OfL/757W3OXr0KJ741QoAvF4vTU1NHDlyhC1btpA/00/Fe09zx5LJ/G51/cBerEg3fvqzZ9hTupeCKRP4xn1f6XY7BVXpj46dWx2/D3+6h2cESHOnk5rqJiM9lS2bNw5liZalYQAiFvXwz//G+i278DfsxJ3dyoxL/5W1a9cy9ZxTwOlwOjP7PUpPjoWcK6g+vI2Ccw8BAz8dMzbbhs1mY8WKFdw064POQwG++luYbsAEyK4FygEfMAsYDYyCye1hc/tn2xssBd5+G24P7+FyeIjQ7e3AesjNAfKAqYANeBsIBnBP+zwANxdXM29qCucWLuLjjw9Sv6+caaMH/BJFuvXSy+vYvSc0EXtpWaXGo0rUhIcBLGofurX4rkeYkLmHuTNyqKybYHJ11qawKmJRm0pK2VRSytIrszlvXAXZrS9ybcE2gE69iR/X5jE99wj5c5OpeG8XH9fmDXifpf7pFGZ/jH/Pd7lpVui+8PhYABq8cDAJaqC+HGgFGgPw5ukLu8q2BkO9pOGLWzcDb70FvzhjZ4+3f22B2kagEjgXaAIaW8B/et7j0vo87hixE079kf/VPkvQhwdS1KsqURe+oNQwQqtdKahKtGwqKWVhcRHrt+yK9Kx662uA9Mg2TY0eGhtDF2/v2qkZAsIUVkUs7rl1BpDPHRl7IxcWdfTAb9P44efz4L2n+bg2j+c25xBKkf33rZ+3sfTKfL5wtZ+Sna08+5q980VMJ/eCcyoEDRr2ecHmAHc11AbAbgebnaPO87lg3af5eHz71FVz/gVe/T7sr+28s2O14PcBUH+ofQzATkLDAGpPQYdZKLaXtvLvzGDpxdXMmeGiZGcrK/4nDZFou+G6T2AYoYOvwgLNnyrRM39OYeT75cuWsHLVak7YL6Hs4BbKDr5vYmXWp7AqEgeeW2fw3LrulwYOnaYPn/ofWFDtvC8HXX08vPnPY7jix5vBMPDWHg/dmfQuzgNbIeCHpDQagNLgbJwbnzj9xNzzoavbAS+BlGy8bYfAmQIHPwBvM/bqShjbeZnM7aWtbC8NB1R9dMnArHnlTYJBKJgyodte0+uvvSIq7YicqeMFVgDzzi9g2xtvmVtUB7/++06zS+iSPvFFpM8uL8riwRmHQjemf7L93laYO+uMLb/d+eanvtPzbcJDF8ravzpZNG+aZtuQqHrp5XW8uGZdZI7UgS4KEGrnjciQgYG2I4llYXGRPtMGSGFVRPosrejOAT+34xyDfbF+y64B70ukK/mTJ3SYzH/gC2gEg8FOY1tF+mLD1t3Dbm7VoaKwKiJR0/Fq14d//jeAyCmvlatWs6mk1OQKJZEVTc1nauFkyisOUDhl4ONRb7juE5SV76O8Yv+g2pHEEr5oti9yR47h5AldYBWmsCoiURM+zRU+1bV82ZJhNem1xBe73X7Wffff++U+PbesvJKCHoLo/fd+acB1iYS98uarXHJuCrWtWaSmuUlNPX0BrcLqaQqrIhI14SUEwz2rZ15MIGJ1ZeWVPPr4MwSDAQqmTOxxUQCRwSrMqKLg3HQq68aYXYqlKayKSFStXLW6U0gNLzEoEg/2lO4lEPADoUUBRIbCieNVke/Vo3o2hVURibrwuCxd+SrxprBgEoZhRBYFEImlyXO+wJo3fml2GZansCoiItKusGAy37jvy5SV76dgykSzy5FhbsX9t7BEYbVXmnNDREQsK9q98y+9/Cb/dO/3KC3b2+02BVMmcd01l/cYVl96+U3u+fp3e2xHRKJDYVVERBLCSy+v44WXXiMQ8POTx3414HZeXPMGL7z0GsFgYFDtiEjfKKyKiEhCuOaqywAwDAOb7exprfrLMGxRaUcS17p3d0S+T0tLJ3fkGHJHjuGccRNMrMp6NGZVREQSgt1up2jqFMrL93Pf17844HZuuO4TVFQcoKx836DaEfn97/6T6xbkUFnXOZy63W4OH9pvUlXWo7AqIiIJ41++flev25SVV1Jato/rr72i220UUiUavPU1QPpZ9yuodqawKiIi0q60bG9kUYA9peVaFEBiypmRTdnBBg5Xl9HU6DG7HMvSmFUREYkLBQUFMd9HaVklwWAAgLJy9W5JbD39xO8oO9isoNoL9ayKiEhcKCwsjP0+CiZhs9kxDIPCKZNivj8R6Z3CqoiISLvCgsk88fgPKCvfp0UBRCxCYVVERBLGo48/TWlZJQVTJvQ4HrW3oPro47+itGwf9997F4UFk6NcpYh0pDGrIiKSEF5c8wZ7SisIBgOUllUOsp29WhRABm312hcpODeF3JFjGDkqj2kzLmDajAuYO+9Ss0uzFIXVODZ/Tmj81vJlS1i+bInJ1YiIWNu1V1+OYdgwDBt2+8BPLBqGEVkQYDDtiOzd+gwjR4WCau7IMWaXY1n6K4tDy5ctYcPW3Xznn29i8V2PsHLVaoVVGRJ3LMngw92tbC9tNbsUkX6z2+3ccN0nMAwoGMTFU9dfeyVgUFGxn2uvuTxq9UliO3G8KvJ9XW2SiZVYj8JqnHr9998jrehOINTDumjeNFauWm1yVTJcFeW18KNbDgFw80T4cHoKK/7nHHOLEhmAnib6D3vp5TeBIAVTJnY7HrUv7Yj0prJmGpW73jO7DMuLyTAAZ5IzFs1KB5/83A9YvmwJ8+cUsqmklId//rfIsAA5PTSiY4/zC898y8SK4tuPbjnEkZoAe1vPI3/ul5g9vpmlVwbNLksk6l5c8wYvvPQaL7z0usajSsw9tvKHZpcQFW63O6btx6Rn1ZXkikWzUXfHVROZnp9rdhkDcITFF2VEvi6+qDjySMfvz+T3+zl8+DAfffQRlTWpGBgANHhdNLQOv1MOK1et7jSuVwZmxvg6ALyOc5gy6xb+/s5HzEwOLxOYY25xIl2IxuIBhqFLOkSsIqGHAcw9bwJpaWlmlzFkAoEAbW1tZGVlMd5/imCwc8+YYRjUtbqoa03CwMAwDG6//fbI4xu27mZTSelQlx0Vi+ZNA4j0REvf7TyQCZxg3LgCJk6cSNXeTeAzuyqR7g1m8YCphZN5+dW3MTAoKJgYvaJEurDi0T/3a/tLFsyNUSXWFpOwevEFU2LRrAySYRiRgBq6mtWIPBa+P9PVSqarNXL77dVPAHD++eezsHhBXAW9cG/qppJSFt/1CMuXLYmr+q2k1D+debm5ZGRkMNq3BmdGFqs/HAn4zS5NJKoKpkzi54/9h9llSIIyDIMRuaNJSkriyOEDZpfTZ3NmToxp+zEJqwuLY79+czQEAgGzSxhyLlfXQzQ6BtczbwcRHI4TAAAgAElEQVSDQT788EMWjV8Q09qiqauLzXQB2sB96+dtfPWz2XxvroPfvZvDX7bmoKAq8aa0bC+PPv4MwWCAwoJJPS4KMBTtiBws+zvXLcihsm5Cp/vdbndchdWLZsd2YQwNypFendkLK4ktFFRFhtbIjMF/BgUCQYLBUCdFWfm+AbdTWlYZlXZE7lhw6qygKmdL6DGrIiISH0ZmDr5vpWDKRGw2O4ZhUDiIeVYNw4gsBjCYdkTWfJDOqVOh+VWbmjw0NXpMrsiaFFYlbg32Cn8NC+jZ8mVLeJsLeetEOqSl8lOnk5/+ErjjCWhqhZOVPHiRh0XTR7L4rkfMLlekV+FFAQCuG8Rk/tdfe2VktoDBtCPS0JbPyRMlZpdheQkdVr1er9klyAAtX7aE6y4JnToJBAK8//77nR4PBoNnzXYQVt+WzLx58wDzAuuswtDYYSuvBPXOnmreGpUHeamQDjiBAOBzQX06uNL5/puv8WDDyZjsf/myJZHfT3gKMl0gJ4PVl3D50svrKC3by/XXXtntogAKqRINl108nT/uVVjtjcKqWNqsQheFGVU4M7J5bt3pMWt7K/dSOyOTpKQk3nzzTdatWweAzdb7qcLKykpa7/+/Z92/9Mog3voaSuvzYhYiZxW6+NGth/HW1wLWXgnqnV3HYZw99Clha/9nELquygYQBMMek32Hg2q493zD1t0sLC5SWJWYe3HNG7y45g0A9pTu5an/etjkikQkLsLq/DmFLCwu5EBlOQcryiL3X/LJa/vd1sbXX45maRJDRXkt/Mc15e23qrljQRY3PTIar9dPTnY2U6ZMIRAIMGLECFJTUwe1rxU3Hmb2+ObIvv46qYBnX43+Ck1LL65m84cnWfKFJ5kxo5js//lnbj60z5oXLQXaU6kdOPPalvAidYHYT7ga7l1dWFwU832JhC4oDR309uXgV2Q4ee6VPWaX0KW4CKsLiwtZcf9nWP/qi6xfuy9y/3e/urDvjdgMSBnNQ4dej36BccTpjJ+lcH/8JQ9tbRNxT/0aubm5OJ1Otv099FhycnJkhoLFixfz6quvMnly59N1FRUVANxzzz08+eSTABw/fpwnnniC6dOnA/D5T83B5/PR0NDA8ePH2bNnD0Wjqvj01PU8+2p05gtOy7GROykTm91OY46DrTUppJRX8LPf/IHzMo7zlVsymDwn1INopXG0ow6sZtZ//wB3EjhsYG//efuDQdr84GmDE01BmPt81Pe9aN40NmzdHbndcUiASCxdf+2VlJfvp6xiH/d97YtmlyMJ7MxZeLob2pYI4iKsdmf9qy8CsOjqGwB457WXut12wsRxjD//6iGpy8riKax662txjJzDmDFjGDVqFMnJyTgcobfssWPHOm0b/iPOz89n7dq1XHXVVZGwGv4adv3113e63dzczMmTJ/H7/YwePZqX3q1g8bTovIacCRlcce9ckrPSsTucHDJg1CwfH3oaaZh5Lv/YX8PmPx9n8pxQQLNSIPvyv3yb7x++BEaPDY1ZDfeweoH6INTVYN/5ArFYyPbhn/+NhcVFbNi6u9OSuVb6+Uh8KiuvpLRsH9dfe0W329z39d5Dal/aEemrhX1cmerdTVv73ObG9m3LT6Zx6dypALzz3umeU8MwqGl2Utts/VwQ32F149bI10VX3cCiG7/U5Xb7d24l2HJ8KEuTKPi4No/M6tfYvb+WuXMXUX/sQz6uHcO2j1tYWFzEJy6ZCUBpaSk33ngjb7zxBkeOHOGmm27ilVdeITk5GYD169eTkpJCfn4+H330EVdffTVLv3Bf6LF/fEwgEOC2uSdpamriROsE5o/fjTMjKyqv4ZP/Op+sieNwpadhaw/agTYvLfUN2F0uavx+9uwK8BeLhjDnxy/izftq6JMiE8gADhA6U+HzYTtZDpwX9f1uKintND5VY1UlGkrL9vKTx34FwJ7S8kEtCtBTO6tXrz7roFikK5+9/U4+e/udQ7KvFY/+mX1rDw3JvqItrsOqDG/Pbc7h5um1zM4poXZnCR/X5vHAb0MreiQ5k5g5ZSSBQIAtW7bwxhuhCyKCwSDPPvtsl6dLjh8PHbDs37+fA8eaAPjzKx8B4PQFuW1mBZmObThzsvjm0+5B1/+L/76Ld6jH7nRiT0rC7nAQJFSXzenE4UrCnuQk+5wUKrc1Dnp/MWF3hnpUnYAPOEXoU8NJ6OKqtujNCZidGiAnLcDCuVO5/OLQMI3j9XCywVCPqkRFIBBebtpGWfn+AbdTWlYZlXb+H3t3Hh9leTX+/3PPTGayEwJhDQlkmYRNUFAWIQgWZU31sVZbl1Jbi1aqxcrPWtsaW6uPD1bE5bF8tcqjVqnW2oYE2ZFFAppgIQLJZCEJhLCEJGTfZu7fH5MZspJtJjOTnPfrlVdyL3PNGZaZk+s+97mE8Ivtm0TV00myKtxWuqmOdFP7d8p/dTQH4/AGNBoNJSUllJSUtFkitiNmryFt9m3arbBpt2NqVNesjCduxniKuHjV8zQ62530blyHVPgVbMsHb6xJq4q1fVU1UFsHZXlA75fhvX5sHUP9rSsCXSj4lo8LvrUfmzhxIrs2PsJvX9shM6yiV4zR49BqdSgoREeN7fE4McYItm7bB9DuODKrKoRjeUSyunZDEgk/m0zcnGgefLaeMyXWD7WqjI0APPerh1wY3cBx4sQJV4dgl1VQyhNPvNqrMRLWfeKgaFpauyGRA6kZ/PgX3bgBcIAa7GthZsTV24QdP36c48ePs/7ZZzl/WZUFCESPaTQafvmLB4D2k8yuio4aZ69r7c04Qoiu8YhkFcBv2gsdHvMKGMqZ88UkJm5ucywmJgbvDh4nfVa7x5qs6l0dhp27Xj6ZNc1ISpqJwlcvMO/R73R4nqLV2utY3dboGXDzCgjGeulfxXqD1SWgpBy2PdOr4aOGdf3/4OOPP86zzz5r//MVoic6Sy5NWbmse/UdAFY/+kCHiwJIkipE3+kXTeRm3HQreWfOk5iY1OYrM7PjnmEGS02Hx4Toqa72A9VoNc1KAdyc2fFDRoY02i/9d0VAQACPP/44v3nkdscHI0QTU9YpVNWCqlrsN1EJIVzLzad1uubAjiTCo2KYNGlCm2MxMTHQWO6CqMRANmuakUK1H3SgKDwM2/KsE+q2mVUH1awG+3U/Ax41ahTHvtopbayE0yiKBq22X3w0CtFv9I//kbWXCR81zN5vtbX8413vSyY6ZjY7YXqtH1q7IZFZ04zMvWFgrbhkWxoVrMujdnapvjuzqs09/8a/+fnPf96jxwrRmaWL59tv1pRL/UK4B49IVtesXEbC6u8BLW+mkhur+lZjo/OX1uwvUtJMFKpBzJsZ6upQesdWsxoA+HLVmtW1GxLtM55rVsY7ra7U35xPwuo7ZWZV9Ejy57tRVZVlS27u8Jwli25yyDhCCMfwiGT1QKrcTCGEu7PNrNpWnHKWSm24U8cX/VfSll0kbbH2ZDZl5fZ4UQBHjSOE6BqPSFblzl/H0ut7dkf/b39xOz9/YaeDo+m/LA2NWBobARVUtWXvVzdurdrcoIuHGZKaj9YbtHoFVLCYVRoqobGqjtLqPGw1q7aZzlnTjE6f9XRW2zHhuZKTO15u2+bWhXEkf74HoFfN/FVVRVE0vR5HCNE1/aIbgOieniaronvOpFdSXVxCXUUVdRWV1FdVY25ooL6iivrKKirPF1NbVkFJgZuuXtVNtpnVlDRTi/pVR3t61W1OG1v0b3n5Z9BqtGg1Wh5/rP3lubsiNiay2Tg/dWCEQoj2eMTMamdsfVa3b99JbW3LdlRX67MqhLPteS2NOQ/W4TtkMDqD9ZcEi9lMfUUlVcWlXDyZzZC6GvLwdXGk7bscMoPi6StgENZVrFSgHigFLpXjVfw/9nNttapddSjXwMu//i7PvfZZt2JaM3MmC370erceIwRYm/m/vv5ZtxlHCGf+Yt+aJ9f594tkdfVvnuWll17im/QMSktLWxyLj4cpkSNdFJkY6MoKq7i0uZRlK41o9XoKTJ9y8JsLzJi2kG+/zeehCWGEzS1n7nffB9zxzaSpXkFz5UdUQAHa6Q7RvBSgM6XVGk4UKhzb/1G3IpISAOFMpqxce3/VZUtulhuohNPYlubed/hkp+cG+zUS4t/IjbOm9/j5Tud33HfeZtPWzs9xhX6RrP7Ps78hPMrI9OnT2p1Z7ajPan19fV+E53Z07r5qUj+TkmYi5WfWuuutLzZy+nI2Dy95k2OhUZw7dQhw39W4UNsprrUVD1k6bj3V1TrztRsS3TBBFwNZRmZOU+sqheTP90iyKpzqfN43XDTtIix01FXPyzSdZefps4wZ6d/j5/rxdyd2eo4kq85Ue5nwUcOJu6X9pS2lz6pwFxu3aZkbqePvG5/irrtW4ld2mr9sc99VrCxDxkGdBao0V94tGoE6QG3EEihXLUT/otPp0Gqs/9ilz6roC6dPn+X06bOuDsOt9Y9kVQgPsWm3AguiWXFrOcdT17Jxu9a6z02ZI2eDnwb8ufJu0YC1DKBxCObQ6UCBy+ITwtGWLJqP9R941/qtCiGcT5JVIfrYpt0Km3b37r9e6+VGN7/zJMsfeNFerO+oS+uL3vPFWwfeOtA2repjVlXqzVBZD2W1Kkz4u0OeS4i+sO5Vaz3q0sULMEZHtHtOV5LUrowjhHAMpyWrXnovGuobnDW8EKKZfYdPtlg9ylG23l8NQwzWFay8mnbWAbVAcSMUHGEx0mdSeIaMzBwyTbkAZJpy+cvrz/donJfXv4Up6xRg7bn6+GOSrIqBzUvv1flJveC0ZNWgNzg0WfWLXdFmn20Z1n3bkro8TnikkfwcWWRA9D+2RDVuxnjH3bRkbnYTle1eK6XpZ7lRT3gcFa229/9uNRqtfRyNxn1rzoV7W7shkaWTil0dhkMY9Aanjt8vPm3OXizBYrG022cVWraukmRV9AcHUjPY/M6T7Dt8skVi2tU2KF1WVggBUaAFDEAIcAaoACpK0Z4/AeP9HPd8QjiRVqsjJjqCrOw8Hl21osfjLF28gM+3fkFWdh5LFy9wXIBiQPHy0nLHbJUj569tc6ymuoK8U9kuiMo9OS1ZnTZpLHsPfeus4Vv4r+/f02GfVYApq2XdZuHZEm4rZEqY9Rexpz4JJSXNxPIHXgQgdmQt80LeYfajZSi5a9i6Z7TDnlddH0XCv/KYGRHA5fIKvin2xjtMB+Y6qCkl4U8rAHfsDytEW9FRY4nuQpKalX0KU1YeSxfP79U4QgjHcFqyesOUiD5LVg8d2MOYkUPb7bMqhKe7Y3oJU8JqqPWdysggDS/ceYTbX42yH3/pJ5Xk55cw95YHKSn8hrtnFpFu6v1sZ+seqHcvuZb/feERgqdcWV5y7e97/TRCuJWkLbtI2rILgExTNo8/JpMdwjmmXxOJf1gYF9Pz2hxrbPSsPvBPPLjYqeN7TBlA1fEEAB745Ub+viOv5cGGWumzKvqtKstQvrkQwpyF91IPVJ5u2SrqdPFILtUHca5+PISMZ4ThD4BcmheiJywWC4piXfkiK1tuHhTOM2d6LOX1tRRfPOTqUNyexySraMcCEKE/x1NLva37zuzkuV/tBCDulmUuCkwI5/r0w//j9OnTFBQUkJOTQ0WZt/3YrGlGIq9fQCQQFhbG8ePHnRZHdEgZZrOZpN8W88HBIW7dH1aInrIuCmC9aWrJ4ptcG4wQAvCkZFWIAcjfUsiC+bO47fYfAJCTkwMlJvwtQwAYhD9paWkApKWlUXr2Gy6U6x0ex5/ur2LU4GLq6+s5f97CXZNygEhJWEW/s2TRfKKjxgGygpVwLzfOmu7qEFxmwCerjY2N6AZICx5FkcTCk4R4lzDCu5rqGvjwww+bHfFhXHA1AIU53/Bhzjf2I9XV1ZSXl4P3XIfGMiGoiLOXCjl16hQH82NYFvs1K24193pxAyH6kikrl5fXW5v5P/7YTzts5t9ZktrVcYTozN5DJ1wdgkfw6E+a8LGhjB0bau372FDM/qSNHZ8b7rg7pIXoCz7ePgwZMqRbj7FYLJSXl7dZ4coRCkvMDCsqIiYmBvjaoWML0RfMZrO9HvXl9W/3eFGAda++0zSOStKWXV1aFCBh9Z1otdbyAumeIQBeeSeZdd/PZn9Fy38/1dWVVFdVuigq9+TZyapxKnNvlVpVIZztRNlIro8s4uw3z3LDxOmUnoWN26QZuvAsp/LO2OtRo6J6Phsaa4wkKzsP6PqiAHsOfuvwFeaEZ7trsR912lBCho1sc0z6rLbkMclqwrp/APBlxpVVsb44d4w5J2q7NU7BqWxO51jHWHhrpOMCFKIfe/o9P/50/0gmDC6i9OwR/v6t1KsKz7Nk0Xysl+JgyaKbejzOY7/4MVu2ftGtcfY2LdZxIDWjx88r+pe/f17FHQ/nc+pyuKtDcXsek6yu3dDekqomUtJ6vhqV4asM7rp1Us+D8lAGg3OXRRP909Pv+QFRnZ4nhDvrSnJp67O6bMnNvRqnuXkzxqPVaqUEQNj98oGlPPfPEoK8v+n85D7w7r+d102mtzSuDsCVaqoH3gICGo0Gvd7xd4sLIYSjxc0Y3+fPmZi0w74wwMvr33LYuHublkaWMgDRXJB3964OD1QeM7MqHEM6AngOVVVdHYIQLrVgtiuufClotdaPxq7Wo3bFy28nO+XGRyEGggE9syqEEEI0Nz42Co2iQaNoWLp4gcPGtc2ozppmdNiYQgwUMrMqhJt7+OGH2b59OwCRkZHk5OQQGRlp32c7580333RViEL0G9FRY3ntlQSHjyszqqK1A6kZ+Lo6CA8hyaoQbi4nJ4ecnBxuueWWdo/bElghxNU5qpm/raa1O+PYZlYPpGb06sZg0X+ED8rk+onB9m4A1VWVVFVVAOBt0HPmTIErw3MrUgYwwHRntS5FUVp8TZ061YmRiatpnpDm5OS0mFWNjIy0fwkhOpaRmYtGo0VRNKx79Z0ej/P5tr0oigZF0ZD8+Z4uPWbthkTWbkiURFXYqeXnW2z7+vkTMmwkIcNGMjp0jIuick8Demb10IlSbptfhk6n67Mbj7r7PF05/2rntD6m0+m4cOFCi/22n/PL/Ns8fvLkyUyePBmAz3bLm6wrNE9M25tBbX5cCNExnU6HRqMBFZYsvqnH48RER2DKPgUqxBhlqVXRMwVqHINPp1JaW2TfpygKQ0NGuDAq9zSgk1WAP7+fSsiggXOHfEN9A9XV1RRWtF0xoz2FB0+x9eApJ0clhBDO17w3am8WBXh01YpuLwogRGtzpsdyZNd+oGUbzYsXitp/wAA24JPVi+UWLpa7Ooq+pAHazqAKIcRA0FlyacrKbbEoQEf1qJKkCtF3BnyyKoQQQthkmnLJys4HVJK27OLxx+Qyv+i9WdOMzJkea9+W7hDdI8mqEKJLNr/zZJ82afeLva/PnksIm23b96PVaFFRHboogBAgSWpPSbIqhJt76aWX2L59u8tvpFowexL6Rf9Lw5BwAi+lMrwwmdzIVejyDqGtrejRmObAUQzxOgsaLWfD7wJUvIqO85tlYx0auxBd9dgvfsznTfWoi+VSv3AwWwuztRsS2bpnGzeO8aG0dhDV1ZVUV1W6ODr3JcmqEG5u+/bt3eqj2tvOFvfGBwLwQWLLYu75rxfRMO9BUBWGffM1auwSzONvx2y8BfRNddAahVs+CGT7j5olrwl+kFDVcvv3VWABqkvxPfM2WFSYsBC8dDSMmg6hF4GWMxCTjQamxBo4mlFHuqmuV69RDFzN61HbEx01luhVK3o9jhDNpaSZSEkzsfmdJ3n+jc8AMAYWET0mgFOXW97wrNfrOfrNYVeE6bYkWRXCTZnNZqD7rakURenRpabJRgMvfL+QhvJsAO7+bRBPfTzanhh+cd4AI71AB/qApoQ4IACGBIDtaqkZfLyAoFbrsrTeHuoLClDti74UQIGhTW9HDYNB13KG4cVH9Bi1xwG4YyyYFk7gyTfqu/0axcC2OXknyZ/vtm/3NNFc9+rbZJpyez2OGDhmTTOy82+/I2HdJ8yZHktKmgmvwMFAY5tz9Xp93wfo5iRZFcJNFVfA5cvVTBhVw7wZMQSPvg6AnK/f5uTlURzNqGfO9THMmzHe/pjSs0coKfyGv6Z2//nunllCQ3kZtb5TOXXqHOM5x90zfUg3+QEwb8pg9lYBGtB4NT3IH/ADVOvmpIPPWpPVwa0Gb70diDVZ1YJG1/SzT9M4fl5XBgTuXqBi1J5g8KjrOHl+ONrL+zD6n2CycaLMsIpu02qtH3tbtn7R4yQzO6fAPk5f9egWni0lzcR37vkjKWkmZk0zAjAm+rts2fUWUGI/b2jICC6XSbLamiSrQripxx66h7gZ41kwexI1NTXU1tYC8GH5AeoqhnEwq5xyZTT3338/AN7e3hQWFpL670d6lKxOCCoiNbeR0GtmMf+Oqfj7+zPey4s7mu5zuv9rxfqOoQFF2/QBrW36aloLT9EqaBUFvFoN3npbjzUf1YKiaxpLd2VfeUUlGTueB8BiseDt7c25c+eg/CiNqgqWrUyJNUiyKrpFq9WhUaz/WB/9xY96PE5MdARZ2XkAGKPHOSI00c+tWRlvv+Jlm1lNWH0n8bveanFe8cVzrgjP7UmyKoSbu+2ue7kuwkLw6OuYNGl6iyVzU9JMbP749+TlXSLu1p/16nlOlI1kekQRB49/ysWLJm4c74/34CG8+7nFesKUldaksxFrUqk0fR8EGIAq67YKzSdGrVpv+wMBQGazYyrWWdpLoPfS89JbWwCYOt6b8YPOkllwmcPHCvjxLYMpPQtHMyRRFd2zZNFNDumP+mgXalqF6EjcjPHSFaCbJFkVwk3Z1hK/ewHMHHOK1NwsxswIon5QHu+m+NnPK7lUyNyJNRxMWsPCOTcwfLimR8/3/g4tL9wJs8MvALsoz4NH1oaSUeQNwBTjChhlgAUwO0BBOQ/pdcBsIBgohICam1hw5o98GNVq8Nbbw4EbgG/hO4utM7Hpi7Emr7ngbfDitY8P2E9PuK2QKWE13DYJSs+ewmSeILOqwilMWbm8vP5tAB5/7KcdLgogRHes3ZBo7wRgu8FKdJ3TklUvfevrfkKInti0W2FyqHXWM+frv7ZJ1DYdCmZKWCHTI3RUVubyxF97tkJZRpE3v986EWOgdak/U/lIMoquPE9K+iW4NAqOwxdfNc22TrTAOxrrLCtwkDiCMy2wv9Xg7W0fAGpgy8dNY2VjnV2tqAWdd4vTE/41mrsXqDSUl3K80JeMIrm5SjhH8ud70Gi0qKpK8ud7JFkVDtN6NjVh3ScuisTzOC1ZNegNzhpaiAHn6ff8uDI92TJRSzfVsey5ocDQXj9PuqmOdIKbtlrOXHod/RcNmntAp6OxqukO1uLzaPP2o6kqBUUBFE6Yp+DVvA5r6FRod1vFEhRKY1U9aDVwoQrMZqi5BBdyaW3TbgXssQnhHFqNFo1GAyrEGCVRFc6Tm7aRJbODOXU5nIsXiuz79Xo9ZwsLXBhZ9/j7O38JdykDEEJ0yW9uDeGmW+r44sQZAsOvIeDyCaIXablp4vdbnflgt7bXvlUFlkaqgrJBoyPhzonAONa+tNGxL0CILnh01Qq2NC0K4Ij6ViGupqxuEAAhw670WvX39/eoZLUvOC1ZnXlt6yI1IYQns9XQtvDWrzp93KxpRlLSTF14BusNVWt/14PghOgCU1YupqxTwNV7o3aWpHZ1HCGu5nihLyEB5yitrQHAzz8AX1/nz1J6Iqclq3OmRztraCGEm2rensX2s61NixCuZso6RfLne7C1oOhpovnKa++iqmqvxxEDW9qeT4hfdgtgTVY9tW3VtEljnf4cUgYghHCoze88yfIHXiSu2WIFQriD7Ox8tBotKirZOfk9HsdW06qioig9674hRH9xwxTn13bL/zIhhMPEzRhvb8uy7/BJ6SUo3MrSJQtQFAWNomHp4gU9HuexVT+2jyOLAgjhfDKzKoRwmOff+Mx+yf9AagZrVsZzIDXDxVEJYRUdNZbXXkno9DxTlrUbRUdtq7o6jhDCMSRZFUI4TPPa1JQ0k9SqCo+zOXknW7buQVVVWRRAONW0+XdyU6wPpbWDPLZeta9IsiqEEEI02bZ9PxqNFoCs7DxJVoXT3LfQTG3dCHS1QS1aVzU21JNlOu7CyNyP1KwKIYQQTYzR49AoGqlHFU6XnmVud3/QYFn8pDWZWRX9WvOayZQ0U4vWSkII0dqjq1aQlZ0HWGtThXCW7/7gQd5+9VX79tCQEQBcLtO7KiS3JTOrot9LSTMxZ3oss6YZXR2KEMKFTFm5PLTqNzy06jf2m6jaEx019qqJqm2cl9e/1eE5QnQm/pZlLbaLL56j+OK5DlevunH29X0RlluSZFUMGHKzjxADW0ZmLlqtDkXR2GdPe2L96xvRaLRkZeeT/PluxwUohGiXlAGIfm/NynhXhyCEcAM7dh5Ao2hQNAqKovR4HI2iQVXUpgWsej6OEO4kPbvY1SF0SGZWPZQtAbN93/zOk8yaZpTErBXbeva2OlWpV+3cHdNL7F9C9CePrlpBVFQ4SxbPZ8mi+b0axxg1jiWL57N0cc/HEQNbwrpPXB1CC8ezL7k6hA7JzKoHsy1rCbD8gReZNc0oDdhFryTcVsiUsBr79uTQGhL+NdqFEQnhONFRY3ls1Y+veo4pKxdT1ikAli25ucNxoletcHR4YoAJqvmI2dPGUVobxMULRfb90nO1LZlZ9WDLH3jRPpNqu3lI6jJFT929QGVKWA21vlPJUe7nxLlhTAmr4e4FqqtDE6LPrH99I8mf7yH5890kbdnl6nBEPzZtooHS2iAAQoaNtH9dP2OuiyNzPzKz6qFsM6hrNyQya5qROdNj7cckYRU90VBeCkAJowgODsY39Kdw+vmm/dL3TwwMtppWFRVFkfkc4TzPv1vHhJEZlM1EjMcAACAASURBVNYOQlEUe+sq0ZYkqw7iilrR5glq833t7XeUA6kZbpUMr1kZT9yM8ew7fNL+vTviZoy3l1IMdKbykUAJE0d6U64bSmDFPym1769zcXRC9I2oqHCys/NRUGRRAOFU93//dj768H3AWnplKwXozc1//ZUkq70UYKgnUF9PxJAa3nvvPVeH4xSqar0MfM011zBn+myXJKuTjQaMgUVkXQzgWL6XfX96ejphgyoIGwSbNr7K119/3eJxFoulwzELK4OAVW32224sSjwaQkND+yuM9Efppjqeqgjl/571oU5joDTzCE99EkpGkSSqYuDorKbVxpSVK0uxCqewfeaKKyRZ7QZbYgoQNqiixbH+lKja/qOoqtriP83Ro0f50dSpfR7P3bOLuGt6VdNWCUcLfOw3/SxecD1Txo/CbDZz4MABgoKC7I+7WqJaVlaGb8OpFvsmGw288P1CGsrLALh3dgm/3zqRdNPASdYyirz5MGUw8fN03P5qlKvDEcKhNifvZMvWPaiqyuOP/bTHyea6V/+KKSu31+MIIbpGktUOXC0x7W86Sk4VRbF/udJd06s4XTWay9rZhA5p5PobqllrHM6R47UsmD3RHp+3tzfLli1jx44dRERYPzxyc62r1KiqSmRkpH27srKS733ve0SMDuQHS68DYMKoKmoYzLFyPy5cKOe64ce4e2YJ6SY/F7xqIURvtPe+tW3HfjQaLQBZ2Xk9TjJzcgrQaLSoqtqrcYQQXSPJKhDkayFsmA8A4UGVTXsVwND0s6G9h3msuro6ysvL2ySncOUN3tUJqo255iIAodc8yJJrrmHQoEHodDpmNx0vLS21n2s0GtmxYweLFi0iJycHAI3GeoOEoigsXryY7du3ExkZyQcffMB///d/A3D3bfOxWCxUVVVRXl6OX0EBR48epbg4lynGGqB/J6ut661nXRsF1LVbhy19aoWnsP3fb84YNY6s7Lymm6d6/h5njG4aR1GlrlX0WJYpnegxPhSWaKmuquz8AQPYgE9WhwdpWX3PDXh7e7s6lD5TXV1NamoqZ86ccbvktDWtTwhegQp1Z95lX9kiIiImEhwcbP8g8vHxsZ+r0+lQVRWNRoNer8dsNhMdHU1ERAS7du2isLCQvLw8JkyYgKIopKent3iuy5cvU15ezrlTeyi7cIGZY85ztGCkU17XZKOBKbEGPkgsd8r43ZGw+k70C1+hYVgUaA3MNfuiqt4cOFoKjTVoS/IxFByhKuN9SVaFR3t01Qq2bP0CgCWLbur1ONFRY4mOGuuQ2MTAMzcqna011xAeeGVfdVUlBoMXpswTrgvMDQ34ZHXcqECCgoLQ6QbGH4WqqpjNZry9vdudeXBHT/zVn5d+cpnBlzZQegkOmyfw5BvWEo1jyQmA9XXt3LkTRVHYtm2bfZ+iKPZZ1qSkJBRFYcuWLQDcfvvtPLD6zy0SsD/dX8WEoCIixtBUG+v4WdUXH9Fj1B4n8vqfcMfYvzbdxOS6X5YS/pVHw9yHYLA3GGC/DrAAM8ZDDZgvnKWhVn7rF/1DZ0lqVvYp/vzKWxijx/H4Yw/2eBwhOlNY0jbv8PXzJzIyUpLVVgZGhiY8WkaRN8ue8waGNu2ptx/7NHkf48cNRa/XM2HCBPbu3QvQpVrbaq+2l++efs8PcN6NRZONBvzL0ymLfgCC53Paks8Ld+507c1MXj7g7Q0+gDegxZqsqk1fhkDwDrzaCEL0G+tf24hWqyMrO5+kLbs6XMVKiN46kD2Js7lpAPj5BeDj64eiKC1WsxJWkqwKj2bKL2Pm1EgApk6dyqhRo7r82GnTpjFr1qw+ubRtq/8M1R7ibIGF4RWVfPHFF4yOuhFyd9oXdnBpH9vWub2CNWmVxuhiAFEUBQUFRaPIogDCqebNnMBHTclqVVUFVVX9+2bu3ug3yeqYYA1hQzT8aOkkCnK7/mFv9tI7MSrhbB8lH+Gj5CM9fPRh4H8dGU6HElbfScK6T3h752VW3qABjYbbbvsv1OpTpOZeOW/O9Ng+T1YHFacS9dVXGII0aLwUe5JqblAx10FjdSON2cnAY30alxCu8OiqFax//V2M0eNYuni+q8MRQuChyaotMUWFebG2BvEqcbcuB+hysqqqKirSfFc4V8AwPU9+/FeOmU8RdGMIH2u+g+X8ed5/5VmG1xVReHIkaZkmUtJMLlkJDdUCreuXm8+yNpqpCIzpk1CaLx28dkMim995kn2HT8qNXcJhkrbswhg9rsN2U9FRY3n9lWevOoYpKxdT1qmrjiOEcByPSlbXrFxGwurvsW9bEvu2JwHWhPO3f/5Li/PmLlza6VjP/eqhpsc7Pk535q53/fdXQaN9mffwVMpGDWbcuGGoqorWS0djbR01pZepODeauvJ0yHTdP8TVK5bz+PHrYcQIa72qDmutqhmoMMPZdHxNf+6TWOZMj2XthkTXJO2i31v/2rtkZuWS/PluVj/6kx4nmutf34jFYiFpy642iwIkJiayaNEiR4UshMDJyaqX3ouG+gZnPoVV1bmW369Go8DQKc6NRwxozWcH91VlEhw1Dp/gQLy8vUFRwKJSX12DVq/HYjYzOHw0Q8cUUHzahfVxlgbQA0FY3xUsQBXQoLXOvPahWdOM9p+XP/AiYK35ldlV0VvZOfloNBpUVSErO7/HyapG0aBoFFQ0vRpHCNE1Tk1WDXpDnySrz/0+wf5z3C3LiLt1Wbvn5R9PJTzUp8W+hvr6ds8VoqdS0kz2GcLlz85Eq9Oh9dKj1etBAdWiom1sQKPTotFo8fLzQbVYABcmqxfSIGLMlW0L1lIALXD+WJ+FcSA1gznTY4mbMb7FDKskqsIRoqLCyc7OR1GUXjXzj44aS1Z2HgoKxuixLY4tXboUs9ncy0jFQDB87LV8J17HbQuty5gXnDnL6dNnSU8/yrfpffe+21teeq/OT+oljyoDcISykssEDbqybVBrXReM6LcOpGa4OoTu+eB2+OAqx2Pu7ZMwUtKstbu25FSSVOFIj636MVnZeb1u5P/oqhUOiUcMbLYrR0+9vKWdo8MBGDu4isE+9QT7uu/EmkHv/FU+nZqsTps0lr2HvnX4uHG3LrPXrIJ1NhVosa8jl0vKCJLV8YQTdeeStUandXI0XfRELkSOA1+s7wpmoBaoAExH4It1Tg+hdZ2qS9t4iX6rs0T1ldfeIdOUg6qqbepRhehreaV+lNbqKa2p591/H3d1OC7j1GT1hikRDk1WD6SaoL4YgLxiCx8dtv6m8ds/t5+sZmaaMJlMqCrExBgZOAuqXp1GoyEgIMDVYfRbB1Iz7IlXBheueq6idZNk1YXWrIwnbsZ40r/exd7DGRz4OoOnV93GnOmx/OaR23n+jc8kaRV9xlrXqkVVVbKy8yRZFS53ucaLyzVe5G3NdHUoLuNRZQApaSYS1v0TwJ6oNldrhmMnTXyV/jKZmSbUZrf6x8cvY0qkc9Z59zTSEcC5bJeyAZY/O9PF0XRRXXnHx5xUszprmpGdf/sd//XDh3n/9V/b9wcA69evB+Ct14N4//33gCuXzIRwJgXr6neqosp7pRBd8MSDi53+HB6VrAKsffdgh8cmzlhAfn4+2dnZLfbHxBiJiYmBxqt8IAvRBxQU9+zt+9rUqx9vqlm1dTqImzGefYdPAj2vK935t98RO3UeQ/waufbaa1scq6iooLKykqKiIn5yz3I++ugj6Qgg+sSjq35EVnY+AEsW3eTaYIQQgAcmq1fT0NCA2WxuSk6tCWpMzJU2OPnHU10YnRAtafVutHraE7kwehwEc9WaVduMceu79btr8ztP8rOf/YxJUSHtHg8ICCAgIAB/f39MJhN33PMw77//vtSxil7Jyj5F0pZdREeNY9mSm9s9JzpqHNFRV7+xISv7FJuTd2KMjuhwHCGE43h0smpbyWr/9iRUFQqO7r9q6yoh+pql8eotbHTezr+L0tHmTI/l+Tc+Y83K+B53PRg+SKGkpKTT8wICAjAajZhMJl577XXm3HCzJKuix9a/vhFVVTFl5QH0ONFc/9pGVFT7DKwkrEI4l8clq2tWLmNciBdn/rMVUFFV2Lut8y4A4gqdzuP+2j2WpbHR1SF0zVVqVv1Lj2FbFmDWNKN9dnPO9NgeJY5rVsbzzDPPdPn8gIAARo4cyVdfHeazj/4ipQCix2z1qIpGQVF63tdYURQUFNDQq3GEEF3jcf/LElZ/jx/d+11UVR1wS6U6ilbuQO8zF3PLsVjMqBYzqsWCinW5VdVswVzfQENNLea6BmrKXft3Mu/f1/JfG7Tc/T9afviCjrtf1PK9l7Us/4uWSV8+YD/PtjLXrGnGHpcB/POf/+z2Y0aNGoXeUkbCuk+6/VghbB5dtQIVFWP0OJYunt/jcRYvmgdATHREr8YRQnSNTLEB9fX1MtsonCL7wDki40rQ6LRYGswM8x+Ff0MDJ8srqL1cTk1JGUPK83jl1zdwzx2PuiwZ2/u9HBg7DgYBXkAjLWpWfZv1WU1JMzFrmrFXZQA9Ie3WRG9FR43l9Vee7fS8pC27MEaP67Bt1ZJF81mySJJUIfpKv87QNm+2lgeoqkpMTIz0WRV9rqywim3P72XikihGxA6lWGdtNt5QW0dl0QXumDCdEZc+4Pf/Z+BnT9/nukBt1/ltnXqaX3NpdgnDdgm+eXuu7jIO79kSzAEBAfYbu4RwlvWvvUtmVi7Jn+9m9aM/kT6rQriBfpWsegUM5ezFEn7xi19SW1vbqs8q0mdVuERZYRVfvnXUvp1wWyEhAVWcLbVgKUnkeLkX6aa6Lo1la9/U/PK7Q5I3TdNbQfPSGtvPUpMnBhDrogAaVFWRRQGEcBP96lPoxu8sJe/Meby9vdssCBATE+PCyIS4IuFfo9lfGE3GuWHsL4zmt//u2fq/Dp1hVLRQD9Rhvfxf2/RzA6D1wuwb7LCnMp336vFjbb1dhehIdHR07x4fNRYFBY2iwRgta3ML4Q761cxqQ/lFQkcM4brrrqW2tob4+OUtjkufVeEuNu1WsDY1db2EpHMQNAT8sP76qsFaDuDV9DVoDJahrp9dGh4+WUoARKeMRmPnJ13Fo6tWkJWdR3TUWMcEJEQ39LR3dWv9rSd1v0pWv9y1xdpn9ZbvuDoUIRxistHAlFgDHyReaS3V/Mam6LAiJhsNXS4jaM8Y0wYWbfwD/nrIjHvGmqxaIPjwewyqPkVtI+TXDwce6+Wr6Z1tR6pc+vyi7zn6hsP1r71LhimH6KhwHn/swQ7P6yxRfeW1d8g05RAdNfaq4wjRXXEzxnPw0/X2pX41mp4t+XvzaIjQe5NX3EjBJQunSyydP8iN9atkVXSdr6+vq0MQnUi4rZApYTUARN3mQ8K/RttnFicbDST9tpiG8x/xh0VgWjiBJ9+o79HzPLxtCA0/rmVCzvPYG2gpcPG6+zgefBPF/jPwOvAXB7wiq5yLOnIuyluP6HvZOfloNVqycwpI/nw3Sxcv6PYYWdl5TXWtvRtHiPbsO3wSHdhLGc1mFWveqqAo2JPYzsxZuJQ5wN6tm+2P2Ztpvbn1yywP6f/djHxiCOGGJhsNTAmrodZ3KmfOXGJK2Gnumn6Ov6eOAMAYWER+fgmjIheQnZ2DMfgEENWzJ1MU0Go5ceMzYAC0WLsD1ALVwLlK6OIbpBDOsujWRb0eQ0VFUaz1qF390G/NVtOqKAqqokpdq3A6a96q2r8rCsTduvzqD2oyb5H1vLysTOJUa1nA/UsnEh5p5NmNRz2mVMDjk9W8YgthEdH8/pk17JOVrEQ/MSXWQGpRFNXqEGAIFReCaeS0/XilOZgSIsj+VgsYGd5Y3ePnmhvpw+76OjD7WPurhmNNVPOx3mDVUMWNU8J79XqEcDZVVTtNQB9btcK+ROqSRTf1+LkeXfUjsrLziY4aK7WtwmFmTetavbWqwtyFS6HqXJfHVusqyM+xJqZh46KZu3Apc76tkWTVWRLW/QOAj1LqOdNUg7FmatvfbDMzTZhMJhITr/Ra/d1qqS0SnsFsjiJi4khOn7YmqGr1pRbHhw+PwKz3x1utY/78+fxnd2aPn0spK2SB5hP2H9GBlxe/+eWd7D11ni+37YWay2iKs/iqvAi/zZ/26jUJ4UyrV69m3bp1Vz0nOmoc0VG9nwl11DhCNGdbIbCrys9lEzii/Stq+Tkm8rOvJKL7vvTsG8w9Llldu6Hj2VONwZddu/bwSdJOampq+jAqIRwr71wlt8w1Ejz6bgA2/flW/l4YaD/+ZtMqPF/v+5hg/UkmjKuEHi57Yf3N2oStoVT9gXre+f5sJr28uRevQIi+ZTQa7Qnr0qVLsVgssrS08Eh7MxqYF9t5i7+KyxUERo5o91h+UarHJ6jNeVyyelU6Hwx+gXjXNtiT1ZgYIzExRuLjl0vrKuERBjeeIDflS1atOcnMmTMBeOWNLACGN53z6quvAnDo0CEOHTpkLcY3zHFoHHcvUJtabAnhGWwJK1ivptXXW286tCWtiqKg0fSr9uKiHzqYY+5SstoV9/38cfKzTezb7tllkv0qWR01bLC9z2p4eBgxMR3Xf4RHGu31G2azua9CFKJToUO9gGHk5uaSm5sLwLBhw1qc8+GHH9p/Dg4OpqSkxN7Sqjc1SC8+omfBtWWoqspdk3KIDbR2IRDCU7TXZ7X1e3xWVhaxsdZLrjL7KjxZZqaJzMxMbN0CjEZji9wnPNJIeKSRxY9ZSyhnR2qJ+0411BeD2XOuQHtcsrrmQevs0en8Qk6fOs1NsV6ohbt47lc7AbrcZ7V5siqEOxkyZEi3zq+traWkpMS+DGtvklWj9gRlZREEDKrii6xx3BR9SmZYRb8THR1tT2Bt322zrjL7KjxJZmam/d4cuNLaaspEI5fbab99MMfMxqTj7D5WxoFvCvoqzF7zuGQ1YfX3APjT//drxhl1WCxqJ48QQnTFvfHWmtiysjIaA0uZteAHcPp5GspLcZfVtoRwFlVV28zASvmAcHe2lTqtM6wme3/WM+cuMWJcLCkph5g1a2aLx/x9Vz7Wdi+ew+OSVTRBgK3vWFsFuSb270hu99jlC2cJGx3krMiE8GgfJJZzx6NwIX8fmQWXGaweZdRgDV6Bg10dmhAu0Tp5bZ60SvmAcARb+ZatE8CCCQa8lnl3mOO0p/nS8omJ1htjDx48RENDAyNGjHRovK7iecnqVcTdsoyxUUbyc7M40EHCOijw+j6OSgjP8dQnobxw5xlGkQ5oOFrgIyUAQjRpPvtq+56dnU1MTIw9kbVYPHtZS9F3Zk0zEjdjPGs3JLZoW9WdRLU1W+IaZFDYtz2JD994AVD44SwD+cVmj116tV8kq+FjQwkPH43SUEz+yWIA5sTd0P65YW1vFqmuriYgIMCpMQrhCTKKvIl/cRA/uiuSoxl1pJvaKXoSQthFRUV1epPuH1/9Zx9FIzxJSpqJ5Q+8CNBidtWRbKtehQcrhAfrUBSF8Cgj2TVjOJBqkkUB+lJ4pJG4m+e7OgwhXMLRtXRanxA+SCx36JhCCCFaWrMyvs2+3SfqWJtcy1NLe9Y3uzOqqhI2Lpp7b11Gwrp/SLLqbHnFFvKLzRzMMdMYqiFuSUi3Hp97sZG9GQ0czDHzp4ecFKQb8/Pzc3UIwkF6usa5EEII11m7IdH+c3uJq7jCqcmql94xTW2b84td0Wbf2g1JV13ZSghPExkZSWRkJDk5OURGRtr35+TkkJOT0+Kc5OT267OFEEK4r+YJak/LABITN5OYmISiKPZFkNrrNezpnJqsGvQGZw4vXGDTpk3AUFeH0e/ZktJbbrnF1aEI4Raui5TPE9G/NJ9ZBXpVs6qqKhkZmWRkZKIoCr6+vowaPBRzfTWWuurehupy0jhuANPpPLYKZECwzazabN++vc2sqhBCiP5jbIiOG6O79tkcMHQk8fHLefvtDcTHL7OvXKWqKj4+Pmj9hxA2LtqZ4TrlCnp7nJqtzLw2ypnDCxeYNGkS+06dc3UYA4ItMW2esDY/1t5+IYQQnisiREucsWupWeDQEfafW/darbpcQn62CbOPcxd06asr6E6dWZ0z3bkZvehbU6dO5d5773V1GEIIIYToQHz8ckYPG0Jj5SVO52a5OhyHkDIA0anyegPHi0P4S/IFZt/1kqvDEUIIh5OuGsId5F40szejwdVhuB1JVoGqqipXh+CWbEnqiYtDqKjrm7oUIYToK4qioNPp0Ov1eHl5sfqhWeQdedfVYYkBLO9iIwdzrr7IRHeERzq3M8DD9yxw6vg2cocNkJZdS0SEq6NwH+X1Bk6XB0qC6mGkT58QXacoCl5eLd/jisos5B3ZyO//cpz3/p9cRRJ9b+2GROt7+ZntXTo/M9NEZqYJRYHly5e1OX7fzx8HIGb2A4QNVpgX65mf65KsCjtJUt3Hww8/TGRkJE888USXH9O6DYqj9XUy7OzXIwa21olqSeERbJUAmw+VkpSUxLJlbT/8hXC1uFuu/LvMzMwkMdHaZz4xMYmYmBhiYqIZpL9yfsK6f3CmxMKZEjiYY+aLc8eYc6KWA6mesXoVSLIqkCTVHW3fvt3tWlMlrL6ThHWftNnvjKSyKuN9SVaF07RXn7r+/73J9AgdXoFBLohIiJ6xJqfW2VVrr9UMMjIyCAkJwds3hNOnz7R5TEqayWOWWbWRZBVobGzEYrFgsVhcHYpTtH5jHjFiBKdOnaKsVk9+2WBJUt1QT1pTXTfRlyPHndf8+YsTxTx7dAgoWkZlvwsonA3/Pl7DjEDT/x1zAyPPbqFozG2gb1rS9+gHMKVZF4mjH8Ck74O5HkvgKIZXHAaLmbMxDwKgLTrWYQxeXloaGhxXzyUGJo2m5e0ax4+ncvx4Gj9bYODdrdZj2dnZrghNDHCzI7V4Fe5A7eL5MTFG1qz5FWBtWWUrCxgyZAihoaGoaldHcm+SrAK7vj5Do7nR1WE4TU11TZt9p86Wc7FcZhDczaxpRpL/9jt2H/yWqeH1BI++DoDHHnuM0kvZfJpq7ZlXlfE+AFu3bkVVVbZt20aNvoEjx3v3/H+6v4oJQUUAnCgbydPv+dmPzX/1NITPBoMO38o9oAChN9AQPtf6MzDkwn5ii16g4OYD1h25e2HXf2Dul1eeZNcTMOdLQIXGenyzC637I24AjQ5zwCgSPkjpMC6vwCCe+ng06aa63r1YMWBZLBa0Wi0ff7yB48dTKT+TwrJr/TiWVc6nqdb+4NHR0npRuEZPE0xbr9XMTBNHvkohOz2VhvKLaCuruTFax5dZnpvnSLLaZO8RaXQvXC8lzUTCuk84kJrBf//Imy3/fp/Tl70wDj3L4UtXzntp7R+4Zkwt35xqJDIykpljTrLnfO8W4bAlhJHX/4TNm5OYMKKIu2cNY1NKoPWEMdfAIC1oQOfTlJ0GDQH/pgHMMDTvK/Jn/x6CfK37LhwG401XtrcmWL8P87UmuLV+TPrsj2TM+D0E6UAF6keDetYe190LVCYEFVFc5c+FCj8mcJ4Xvg/LnpNlf0XPqKrKC2uuB8AYFkzI8ACOFvjwac5koI6brzH0y/XVxcAQE2PkfJ6JnP9cJj/zGAowL0bHvBgv8i5ZeOvtpwDwm5jg0ji7Q1pXCeFm1m5IJCXNxBefb2QYh5g2aD/RQ85wvNDXfs4/9hdAyR6mDdpPUPFGhg/X8EFiea+ed0JQEWdLLXx5Uk9hTTRldYO59+b6Kyf4aCEA8AetAbTegI9127Zf5239wr/pSw/Ezmu5DRDYtO0DPrpmj/EFvL3Iyy/ghthB3BA7iDEho7isvQ6fqJ9zpjqKyOt/QkN5Wa9eqxA/WfUGc+ZEcbHCj79/G0nCv6yz9Tdf480Lz6yWmVXRr6iq9Ze08GCFfTu/Be1Y1qz0nBsIZWZVCDf1j5xZHLtYxHUTDKSf8SWj6ErtcbqpjqcqQpk4JA+8h2EqHwn07rK4V2AQlJZgNlexcuVKgoOD0Wq1nG1axS/ofaCpvFmja4pFx5UE1As0+qb9vlf2tdkOGndlfz1oFIVvjSusYynWc8JChvPWk+usp9TXc+nSJQoLCxk0yMD+7W8xarD8ni16J2jkVIIrf4tX8UmO7Uni5mu8eOCHS4mOjpZEVbjM3BvGQ3kX6qWrz7F/RzIHvkxrc2jOwqUoGoXwSCP5OZ51I1VHJFkVwk2lm+pIJ5hPU9s/nlHkTUZRbNNW7+s3Pzg4hLsmlUHNe+Ruf480ZQpbjwWiGkKsJ8SssdemtviuXNm238unaXVe8+1R4dbtYUDTe/LwxjzOK+HWDRU0Oj1Bkx8AYLLRwAvfL6ShvIwZQ6yD/f1b9+qUIDyTLTF98D7pUSxc70BqBnOmx7L/q5Nd6odaUFDU/jg7kgmLiEbR9J9V2SRZFUIAsGm3wn9OhnLfQuvd9u/vuERGURXQ9IYYqsJ0Ba6H2X4KnIP0GuAG7EnpRJ2CAhz7XtOgJ5u+39Vs+x9fwMwr28/P1zLsmn2sWzAPjjQ9nXJl5jTdVMdTH4/GGGjdd7yw5Syz6N9s/X0DhsrKLaJ/a95S6mCOmdBgzVUb+YeNCyVsXOhVxwwPnQkq7P3ikMPj7UuSrAoh7DKKvHn6vQ4Oll2Gr4IgFfYdbmpVZbRAosbeuSot1ULwub2Q/zvrjhTg1F5rTSvAuZuAZ+FTrAluPaze0cjJcgvkAGagvAJCW74522aZxcD17kdJxM0Y7+oweuRLD+tpKdxD80b+syO1hA/VMnZo0y/yXv7MXbi0y2P94S/77UlveJTn3TwoyaoQokv2PODP/L9eBp2O+vKmFigX8njm1kFNM6EKTHyM8JNw6/imG6Am/hIOARNt21NhxDMwsRRUlb3Z1RyN/TWUN8K5CrCo3BRykbix3qx1xYsUbqX1whBFP/pvtv7fr10UTc/88dV/cvibLFeHITzcwRwzB3OsV71yG75l94naHj0+NFhDY+gxUFxaYAAAIABJREFU4JhHrWClqE7uGOsXe58zhxdCCDHAPP7Trs8o9dbLbyf32XMJ4WnWrIwnYfWdTn8emVkVQjiMrb5w7YZE1qyMb/FdCEeRBFKIgUWSVSGEQ9gSVRtPrS8UQgjhXqRZoRDCIQ6kZthnUNesjOf5Nz6TGVUhhBC9JjOrQgiHSEkzsWZlPAdSM+w/z5key4HUDFeHJoQQwoNJsiqEcJjmM6kyqyqEEMIRJFkVQgghhHCxze88SdRwPfm5mb0ea9EvPnZARO5DklUhhBBCCBdbMHsSC5eu4KbxXoCCphfLpf423pc9J+spuGThdInFcUG6iCSrQgghhBBuwtr9XsVsVlEUBUUBRela4hoWEU1YpJG5C5cyZ3sS+7Ynk39JJa+4kS+zGp0atzNJsiqEEEII4YZUVUVVQVFUujLbWpCbRUFuFgd2JDMmIhpQCQuG8CFe3BTrxRcZDR452yrJqhBCCCGEG5gX69Xu/uazrWOjYwiPNHZpvPBIo3Vp621JqCrMi9ERd+tycs838vPnPnNc4E7m9GTV39+fyspKZz+NEEIIIUS/FzYumrnz5kFD13OrvduSAGvSO3fhUuaCJKtCCCGEEKJ7Xkiu5Qcz9Iwd2smaTY2VlBcXETh0ZLuH9zUlpwD5p886MkSXkBWs+olZ07p2SUAIIYQQ7iu/2Nyl8ypqVPAb0e7Xvi9TyT9Xbv0qkGS1Uw/fs8DZTzEgrVkZz6xpRja/8ySzphn5zSO3uzokIYQQQvShxMTNbN6cxObNSW2OhUcaue/njxN67SL2ZjS4IDrHkTIAD7bzb7/DL/Y+APYdPuniaIQQQgjRlxITk1r8HBMTw/LlS1uck3exkYM5Zg7mmPnBDD3UFzvs+f39/R021tVIGYAH84u9j83vPOnqMDzGrGlG+4x0820hhBDCVZqX8d0YrWNsSNfnEePjlxETY328qqpkZGTw0ksvY/YN4ezFkjbn59UNI2HdP/nO/a/0PvA+JDOrHupAagYAz7/xWYtt0bE502NZuyGRWdOM9jeHtRsSWbMyXtaxF0II0WdmTTOy82+/I2HdJ8TNGG//LI8zdi8ti49fDkBmponExM1kZppQVRW/QcGg82lzfsp/zpDynzO9fwF9TJJVB3HFDN2c6bHtfnemA6kZpKSZnP48zpSSZrInqJKoCiGE6GspaSb8Yu9jzcp49h0+2evP1ZgYI2vW/IrMTBOZmZmcSDtEQ4U3z695mLPFKmOCNU5ZCGDmtVEOH7M9kqw6SMSQGt577z1Xh+E0qqpyzTXXMGf6bI9PVje/8yTLH3iRze88yb7DJ5k1zejxr8mZYkfWct9C692p6Wd82bS75+tVCyGEsM6stjfBtDejocOFAVobHXtdm30xMUZiYowc25tMfsYlAMKHwH2zDU5ZdnXO9GiHjXU1kqz20uiASsIGVfTrRNVisaCqKkePHiUubLarw+kx2wzq8gdebPFddCx2ZC0v3HnlktGEIIBISViFEKIXUtJM9kmS5qVpB3OsEwNdTVi7wrb6lW3Z1d89eju7vq1h7Ya2HQTclSSrPRRgqGdMYAWDDPWuDsVpVFXFYrFeNtBo5F68geiVX+qoKYSjVUvIyjrNg0u8uDcwl027h7o6NCGE8GjNywf76r4TVVWtK1gtRJLV/izA0MCYwPJ+naTCldlURVFQFJlFG6gaK8o4W2phWGgYly5doqisDu/qMkCSVSGE6A1H3C/x05+utH9OL1++lOXLlzkgMvcjyWoXWZPUCgYZ6lwdilM1n02VRFV8cHAId00qI2j8eKovpeFd/R9OlLW/vJ8QQoi+p6oqqqqSmJjE5s3Jbfqs9geSrHZioCSp0D9mU6sy3rf/vPvgt91aLCFuxnj2HT4p3QGa2bRbYXLoSO4ZN47SHF9OnBrJ0+/5uTosIYTol36zzNpuSrUWmrYrPOpKX9a3395AYuJmEhOT7Enrjh278PcPYZBepaHCcQsAuJIkqx0YSEmqJ86menlpiR2nI93U8u/nyWdeZv9X1gTVGD6Y5J1fdWPUR9rsmWw0MCXWwAeJ5b0J16M9/Z4fDz0ewKbDQ/l4a6GrwxFCiH4pYd0n6K6SpNqERxqh+px9Oz5+OfHxy+1Jq6+vL8HBwcycOZMvPvs/Z4bcZwZ8stpe+4jkf24cEEkqeOZsasJthUwJqwHg6AQf/pQcRkOD9Q7KCRFDmBAxB51Ox/r16xkX3PKxHd0odvHixTb7XnxEj1F7HIA7HoWnPgklo8jbga/Ec3jKvw0hhBiobEnr6dNn+Nvbb9JQ3vZzzVP1y2T11/dM5qaZ4zs978COJOAMFFlb85wqKiW3qIRBBicH6AY8cTYV4I7pJUwJq+FgvpELFX7MDjeR8INynn7Pj/u+ewOTJk1CVVW2b9+On9+Vy9W2yyMdaWhowEA5dQQC1pZNRm02e7JGUMtYpo1I54U7z3D7q33TANmVOur/FzdjPOHh4S329YdFIoQQwl28n1LPb++dTH5OZo/HGDMmlMbKS3y5a4sDI3OtfpWs3hitY/54PVTkcGBHTpcfV4s3Zy5VovUJwmh0j7ucDQYDer2+x4/38vJCp2v719vQ0MCFCxfIzs4GPK8l1YN3BpKR4c2sBT9Eo9FgMBgIVxS2zoXAwEACAgIACAgIaPfPT1GUNkmroijccccdzJlurQO6efrPMJvN+Pj4MD/qMmfPnqWsMpJh/M35L9AN2BLV5z88iMXbD7PBjzlxhby6M4//5Jejra9Bd/k8v17xHeZMj5VkVQghHORMiYXwSGOvklUb6zj94/25XySrtiTVYlF56n/+F4D9O5I5sCO508eqWgOhEZMIbWcRBq1W67AYtVqtQ8frKVVVCQoKoqysjJKSEleH021vfVLO3fN8GT16NGPHjsVguDINXl1dTXV1NQB6vR6dTkdERAQAubm5LFy4kO3btwMQGRlJbm4uDz30EG+++SZhYWHMmTPHPlZtbS3FxcUoikJW1jGCa7bhNTKoD1+pa+2tHkPDDT8Bgx9UnGfhXy6C700wQY/ZXIv5wnFXhyiEEANeYmISigJGo3Xlqubu+/nj5OeY+OMfXmLsUM+amGrNo5PV5kmq2Wy9pN3VJNXG4D8Ib2/vdmch+yNVVd0iae6pj/ebuSbkBKr6LBX51+ITHMK7n1v/7m+cHkPcDdZZwaCgIDQaDVqtFr1ej16vp6qqiu9+97tkZWVRUFCAn58fxcXF+Pr6smfPHsKM0wHYd/gENTW1GMMauUb7D6IVwA+e+Gtor+OfbDRgDCzCK3CwW68C9cXFoRAeAf4aMIyz7mwE6oAKFTReQLoLIxRCiP6pS7OhDVUAJCZuBqxXCGNiYli+fGmLpDU80shHh6194WdHah26MlZf8sgMrb0kVVEUNBqlW4mqxaJSVVXtrDCFE2h9Qnjm8xDu9Qqk8T8n2iR8102wJpTnzp2jvr6eEydO2I/t3bu3TW3upk2bADh58iTXmax3V7798YFmZ0Rxb3ygQ7oBvPiInhljDASPvp2v9/2D2MB6Ev41utfjOoWXL/hpwA/wAhSgAdAA1Qp4SI2zEEJ4khujdV0rAWioBCAmxkhmpglVVcnIyCAzM5OYmBhqzW0fcjDHzMEcMy8kr3Bs0H3AI5PV7ZvfBuC5Xz1k3/f0S292e5zmjxeexZo8tkyYDh7J4jvXj0Kj0aDRaCgv73qCOXPmTHuf1fafq/eM2hPk1q2gpGQMh8+M54fz6rku7SxHTvs7ZHyHMpvBApixJqu2Ml8L1j92xXNn54UQwl3FGbuWlhUWnGX00CmsWfMrMjNNJCZutietxcXFhIyJJSXlELNmzXRyxH3DI5PV9ry//g+EjxkFWBvmhkca2z2v7MJZsFQTFDmn3ePCc53IPs/daz5utqfrd+4fK4XkB150eEy2O+srKk8B2Xz00Zv8+MfP8sgjj6CUfsGPlntzs9n6ZuJOixHEfToWc/Q8ysbNQ6NTQAG1UWXwqb0E5u3lch2wepOrwxRCiAEv5v9v787jo64P/I+/ZiYXECBECAQIR8IEBDzaRDE0oHIJCLFua7W1ul3356JrlZ8r1LV2W+yx1UXL1qMta6utdX+lolW5wuUBBAKaIJUrmRwcAQKEJJAQcs7M74/JDJncx2SuvJ+Phw8y38/38/1+BhPmnc/3c0xMdAutpaVl2O12kpJuYte2jcRFGykqs/m6mT0SNGH1xMkzENrYQzWggrHXj2j1vEtXTkFNBX1nqkxLoaGBOWYlEKUmT3KF0EU/iuI7d88nLi6OXz9/H4u/Gsrvt0/hoGUdVTl/9quwanzqBEdPFhBz8VPHgRjgDFwYeSu7UjdjytnKbKp92UQREWnCGVp3btnAzq0b+K9nHBvdPDA9HKPRwCdH69id1+DjVnZPUITV4xds/MePlzE2IZGdWza4leXmWli/fiO5ubksXryIGxJaD7F9icKqbyz7QyRvvzSe8vIc/uG2YSz7QyQ5xf63+cTK1etY/ovr+fTidErG3Qr9cPxLMQK4ApRdwnj+KDDOK+1puu7rytXrWP/G0yzuhV5wEZFgZLfbsVrt3DoxlB89dhsz56ay4r+3s/L1jI4r+4mAD6s7curZU2Dl96089l+/fgPr129ssiB8x9uYifTE8iVpzJx2LYsfeoHlS9L4Ii+HuMn1REbZASMPvOr4frxSGUXpFT/+8TOFQVgoROAIq87hwTYcLzqxJaCnNO2dXr4krdVxxSIigW7Fk/fw86e2durcwqIzvLXmX1scT517JwajgVvvWMSOZp13drsdDFFgGgfGwHq+7Meflu2ocsyUK6wZzp6CEwCsWPUuK578JgBfHrXw9nuPuu1aNHFiIhMnToSGvrvHu/S+jKwcR8/kkjRKI07SYG4gccoUTKGhYLfTUN+Ata6O6vJLREaXcGSnn/4IHvgTfFoHg8Ng5kMQOwZ2vAXnCuFyLRzZDIt/6NUmpSQlkpGV0+ruWiIigW7ApAeAni0xlbFtI6lz72xz3k6g8tNPyvYNSPplm2VnL9VS02Bg8ODBlJeXA5CWtoi0tMUAnDic5ZU2St/k3NFp9Ydbue2xrxI7LA5TeChGkwm7zY61tpaGujqqzpViMBq5ZuQ5Ss/44Y/hjf8In/4ecnbAuueuHl/4E8efU+/1WlNWrl5HSlIiP3zsbj3+F5Gg51xiqruhNWPbRjIAo9HQ2Gnn+TZ6mx9+SnZdXLQR0+Xj7Nq6ga9//eu8+OKLgHtIFfGm4eZoBo+Opf+wIZhCQzEYjY5xQ3X1WGtrMRhN1FZexmAq8XVT23brD2HMAAjHsb5qPVAFnKmA3b/xalMysy2uoKrtXUWkL2gvtM6YOY0Zt0/v1HX+/Kf3OHH8VG800WsCPqzenxLB+GFGbJfy2bElnx1bNjBz3iJm3rGoU/Xrqyt7uYXSFxlDQwnt34+wAQMICQ/DYDRgt9lpqK2lDggJD8MYGvA/fr1u+ZK0Fsf8adUEEZHetqfAyslyOzPMIVe3Te0/vNP1C2rG8JfMQmaYQ5jZS23sbQH7adnaLlbdEW4Mgv5x8SvLl6RRNqTWNZ3PYDRiMBiwG2wYjAGyP/OBP8GOehgcCvescBzL+RS+/PTqmNU0x5hV52z9mdOuBfDIo3rnRLWd+46ycvU6BlhPcf3Ns0hNnsT6N552HRcR6QtOldn4y746RkcbaVj1bpfqZhw45ap/vOFLUo/UkJEVWE+oej2sRkZ6fneeqpw/AtqBSvyPM0BNnDWWlOujfdyaHhg8BTjgGLP6QJOdwpxjVmOmtKjiqVn66994mpdee4vfv/Y84faLOBebO7b3jxRm2vnNb8Zy/c2ztISViPQ5p8psrFy9oeMT25CZbQnIoVQB27PaWbm5Fl56aZVrZYD/ePJhXzdJJDB0csyqc2mplKSezz51BtWcve8R3qzMubJHpPUER/e+z382nq/AKiIS3ALkmWTX5eZaePHFVbz44q+w2WyuD7qmZs7r3LhWEWlfSlJij39bX74kzRVUOxJmK+fo3r+xc99Rj4RkERHxX70eVpc9vKC3b9HC2g828tJLq8jJyXFbZ/X3v1/t9baI9CZnUGv6Z2uTkrpqpO0I8V/+ksmZz8G5kwDEfP4Wk/Y9R/zB5xlx7B238zOzLax/42l++Njd3b7niifvcQXVyMhIzGYzX/nKV1z/mc1mYmNjXeeH2S7y2muv9eieIiLi/4JuGED40LGMDY3g3LlzlJeXM3FiImlpi5k4Ub0vnvDuu+8CYb5uhjRyruvq/BMcGxP0tKfzjHEy8HdiTu7ghr0/xWAwYLPbOZD0YwDOjv+W69yMrByWL0njP197v9v3S0lK5IVfvwGA2Wxudaz7wIEDGThwIJGRkRQXF1NZWUmk9US37ykiIt0XGua9rduDLqwufeoHrnVWly9/SiG1DZGRkZSVlfm6GULryzN1VUZWDuDo4Vy+JM0jM+ULr3+GwqZjVhuAy8DpckL3/t51nicG7KcmTyKCM20G1aacoTU7Oxvw3MQuERHpvPCw5jMLek/QjVn9r2ceIzVpCitXPq+gKn4v9SbH1qErVq3tVn1nr6bzUfj6N54G8Mw4zrAwsAOGZsdDeucfqHfeeadLq4ckJurnW0SkLwi6nlWAnVs3dHpTAJHeUFtxGbvNit1uA7sdDAbHWqs2O3arDbvNRkNNHVu35fJBZed7Je+bZef+KUc4eO4a3toV5erVXLl6HdclhvP3Dx9h+lgrUVNiycwe0P03MCgGahsf8Ri4GliNQFg4toiB3b92G5qOR+0MZw+riEigW74kjQfvupHCwvweXSc+fgLXLfyph1rlP4IqrDpn9+/c6r4GWW6uBYvFgt0ONySMaFGvrq6OkJCg+qvokLGbi9PX1taiMasdO55VyqgduSTODqFh0EBGDBxKjCGc/WVnqa24zMUTp5lqu8jHlc27Ldt23yw7904t4Hz1MK4dUcGL/xzCop9HuMq/MbmQKWOs5JfFMTm6iPtSYliTOahb7X9uVwOMq4eq0KvPX+qAaqCuAeuoJIixwvmibl2/ub/97W8kdn5DFpeBAwey4sl7tEGAiAS8goI8tm/bhKGxc6M7PgLu/loke3NqKC5t8GwDm3n0/lm9ev2mgiKhHb9gY/SN85h5xyJ2bnEPquvXb2D9+o2udVZv0DqrQPfDqnTe7tf/zrnD54iIjmLC9GGAndxPz1BfVU3+7uIuX6++opzdx8cwMmEW+wsKSI496FY+dng4R+vv4HRFKRX1Q7h7oYk1md3bTnjsuU2cSJoNETjCqgHH7yhGuObEXgYcf5cY81DOh0zu1vU9qbtDKERE/JEzr3T3czpuWChxw0IpKqn3Smj1hoAOq8cv2NiV18CpMhvLb3Qva74ZAOA+hrWhyostlb4qf89Z4CyHNuT0+Frn6hKZHD2c8vJyoqOjuVg7xK28xDqV6lo70dHRQDRW67Ee3M3A118zEWYCkwGMjasBNNjgSj0cjH+c87HzoORUj96TJ6hXVUSCkc1m63Iva3z8BMbHm6mrreCLLw4QN6wqKEJrQIbVAZO+12ZZjRXOXTHw4ou/ctsIIC1tEWlpi7l4/gyXis4rrHbTjx6/m3/95XZfN6NPuv+bdxBmu0hRkePR+yBjKRDjKr9ij8Fkgri4OCorKzlW+BnQvXGrJxL+iRMLX3RUb7oaQA1wCSgqAPu5Hr0fT6g0jvF1E0REeo2zw62zodU55nXazTeSm5tLRUUlo4eGcM+Mgew5Uk2Wpaa3m9wrgu5Z8MAhQxmbkEhUVBRwdTOAtLTFAETFjPRl80S6rfB0Jf379+e+++5j7NixXAgb7Spb+k/zeeSRR3jkkUe4bdo4bko4zpq90d2+122JgxyP/puuBuD83a8BsNax4oHp3b6+iIh0nt1ub3M3zuYKC/P5y5p3OXeuxK3u/Xdex4evfscjyyV6W0D2rDb3NXMI4cUf84tlHzHaPJXa2lomTkxkxoxULV8lAS+cSgZYi/jzq3vIu+UWjh8/TkFBARs2fIpzuuCJL228+WYpAPv27WPv3r3ceMs85i+5o1uPyTPffhlT0newTv4KhAKxQAFQbYcLJwnPeosBkzw3BKCgJITE4fVdrldWFXS/b4tIH7X7UBWZR2tIuTaizXNmz1nA3LkLO33Nbds2sX3bJgDGx09gzpwFzJkTeMOnAjqsxkUb+cfUCOx2O1arDYAii2PSyf959t992TQRjwmzVxJBBRiNfPbZZ3z22WeA+yS5psedZbs+y+G65O7N1jRVnMX0ya/gE5g2Zy4/+Nd/4Ed/+gNHs7J69mbakX6oX69dW0Skr6ipLnV93VB/xYct8ZyADKvLH05lxf+dw85tGezankHzXnGDwcCubRvbrH/ScoCxU5J7uZUintGvfz9GDmp9+IrJZGp1xmh5eTmXKjxz/+q8TdwyMo0X7irh4OQqnn2rB+u3iohIq5w7EXZGbU0ZH3+yBwCzOZEJExxPkZv2pAaTgAyrGKPANA4Mh1oE1ZnzFjHzjkWcLLCwa9tGThbm+aSJIp4SHhZOZGTH45SaMplMHrn3pNganrvL8bi/5HIkk6OK+cWDsQqsIiIelpltIcnc+R0CN21aDzg66MzmiSxYcKer7N5776a0rJzt2z71dDN9IjDDagd2bdtIRjs9qyLSOQ/MtQJQX19PlW0YgwfPYDK7gAm+bZiISJBJNodzSzvjVZtbsGAR6ekbsNvtWCw55OdbMBoNhIUa+WrSbAB2H7Jj+fIj4oYFdtwL7NY3YzDA7o+Cr/tbpDvC7Jd6fI39+4uYPCuEAwcOUFp6ivMln5A0Pqj+2RAR8Qtde34GCxcuxmyeSHr6evLyLI2rBRj46i03U1FxgUGDhgLwWW4Nxn5jeHv939l9KDCX7QyaT53C6hjeeP7bvm6G3+vuFm4SeEKt5T2+xuHSccAp7Hk/JqbexsjxIRy5GNvj64qISM+ZzYmYzU+Rl2dxhdbbb7+dK1cqXWG1uMzK+x87N4k54rvG9kDAh9XjF2z8ZV8dy5dcD4Ou7XL9HTn13DPR2gstE/EMq7V735+dWY+vIznFETyzdjQPzDjDDYlRvLnZyHtZGq8qIuJpZ0obKCpp6NYje2doffXVX7Hj00+w2+188cUqikrqib0mJKB3r4IADasZWRZWrHqXjCwLmdl1bsdWrt7Q5evd4+kGigSRnOIInn0n3tfNEBEJGilJjtn7qcmTXKsAFJdZOXWhe2HVqehkIUUnC12vnbtXBfqWqwEZVjOzLWRmWzo8Jp534403AtpuVUREpCd++NjdLH7ohW7vKJWe7uicW7BgUZvnOLdrDfQtV7X9i3Ra1Niv8f7H+oXAV+bNm0dCQgIJCQnMmzcPgISEBLdzHn30UV80TUREumjxQy/0qP6mTetJT9/AK6+sIj+//c9mu93OrNnz2bHudapy/tyj+/pCQPaselp9fde3eexrDl8YSuXpY2zec6zjk6XXFBQUtAiqzgBbUFBAQUGBL5snIiKdkJo8idTkSYBjM4DU5EnEXhNC3LDQLl2n6bJVzo0B2tKVbVr9jcIqfS+smkwmBg4c2OnzD18YRmVt136AxPOahlLn11u3bgVwhdTmPa0iIuJ/Vq5e5/raOQxgZLSJ0UM7v6HLK6+s5uWXX3ItW5WXl4vBYCDEZCAkJLgenCusSpsu1YZz9MI1vm6GNPrtb3/r+rqtHlRneBUREf+XkpTo6lntjieecF+2Ki5uFGPGxFFcfIbiM2c83FrfUViVVimoioiI9C7nxPDU5Emc6eZMfeeyVZs2refSpQvMn38nn332ucKqBLeKOgVVERERbyous5J5tIaULmy52tTChYt5+gff58AX2R5ume8F16AG6bGKunCOlCio+hN7lzfhExERad0f3v7A103oMvWs9kEhIa3/b1dQ9U82mw1wLF3V1Rn/TQfxi4hIcNi0aT2ffJqJwWDg8cef7HAlgKaKSgJvUrlXelYjIyO9cRvpJJOp5WzDoopBCqp+bt68ea5lq0REpG+z2+3YbDZefvlXvPLKKl83p1epZ1Uca6jWhvm6GdKBZcuWden8iWPCKTnfS40RERGP+n7a4A7PSYg3A47xqeER0aSnb8But5OXl8vSpY8G5bJVoLAK9L11VptSUPV/l+sjqK+/5HpttVpbPc/5fZycnMzUqVP5SswBMl73ShM71N3tBJvLyMrRtsoi0mfFJzjCanhENAsXLsZsnuhatsput1NvN2CzQ4jJgNFo8HFrPccrYfXR+2f59di5zCMV3DO69TK73T8mtxgMnvum69+/P7W1tQqqAaKqPoLdJyOYFFvDLx8MgX7jHQVln3D3yxNc5z33z2auH3qUiMubqTEN5sjFWK+0b/0bT7Nz31Gv3Cs1eZLCqogEnRVP3sPTP9jR5XpNl61KT99ASso0Zs+ezc4dH/P551m90FLfUM8qkHOslJKSEkJD3Xdpqq+v90mva11dHXV1dR0G1C8K61ocq62r7fD6DfX1WE5UKqgGmJziCP76uZ3vTv8CgGVr3X/D+skf8vjFg7UkTbmBI4drefatAV5p1859R3n+jx9hC+9PRKVjO966fmMwXSnr9jWt4QMYXP4Z5TEzweh4pBVaUeKxHloREX/z6rpL3JUygLhhXY9mCxcuZuHCxaxZ8yYNDQ3YbP7R0eYpCqvAibOVPPObz33dDJEOrfnYwJqPh7ZZfjWgevZH+xvJZTx8zyCyD9eyZm80By1XfynaUTmC2pseBGs9w/LfBGMIZ0bMILT4sOOEsEiGlWwHoGTYHABsx7Zh7R8FU+51nHP4r44/p9wL1joYOIIJ215nzw2vggGwWbGd3OfWpusSw7n32hymjLUSOiiKt/dcw5qPg+exl4j0PacuNHQrrDp9sT+bSxcrKCzM82CrWhca5r1t2BVWRaRdK75+mhvGVFN9uoz62deaAAAVFElEQVTJUfDT+cX8mCmuwPrpxTgYHQtGE9fvmsW+eVshdDz15vlgrQdrPWFHSgCon/o9x0VrGmd+jZvp+PPUXsAO5jugoRaMRgaFA+NvBqsdrPVY66uASle7vn3jCa4dYeXouREMvVzJvVMLOHB0NDnF3VtQW0QkUOTlWcjPdwyJWrBgkVtZfIKZJY8sZfXvft2roTU8LLzXrt2cwqqItOm6xHBuGFPN5wX1FFUlk3LjCGJtW0gcVMxBoqkfdT0MjYWB4WCAiBAonzIbyqzQzwQmwAjhZ/o5LhjbuDzawDZeD+0P9f0hzHEtokIcC+xZQ+H8cJqG1WtHXG5s13DGjr2eYWxlyqgrCqsiEvTy8nJJT9+AwWAgPz+PBQvubLHW6pJHljJh+vf4RmrgLx+qsCoinZKUlMSFinMMirqJ+IR+LAiP4GhYPEeiwiEcMECYCcfXg03Qv7GiAUKc+dH5b2ZYO69rgZDGaw0AbIAViBhI/KhBfPvOrwLQf/REYiNGMi48nGNH0qHjVV9ERPzW43dFAZ2b2O1YBeDqslX5+Rbmz78TgMKCPJjrOG/c+AReXWfhrhTvzGHoLQqrItKmg5ZaQr8VxU0JFwkbHcrEG/+ZwYMHs6hxMuLPPqrmyGkcARUIMeAInvVAP3DuFGsMaRxL6nxq5PyXp/lrZ6g1NrkWQDUQEsJ3vzmX735zLtXV1Vy6dImwvAzOn9jHzaMcu3pZKmJxpF0RkcDSldWHzOZEXnllNS+//JJr2ar09A2YTEby8y1cqToF2Jl2/Ugysy18mFnFgEkPeLS9yx5e4NHrtUdhVUTa9cw7o7jvln5MPraanNK/suwPka5H7V+dNQ9uesARKo3QP9QAoY6v6Xf1v/BoHMF1FI4JU4MaL+5c0GBQY/kQ4ALQHyLDDI7jdY3/Yeenv37PbRm8+2bZuW7oMfYfacBSd4PbxC8RkWD3xBNPkZdn4eWXX8JutzNyZCxjxsTx/vsbqL5SxbghEHtNCMWlDb5uao8orIpIuw5aajloGQBMaFEWFmJwPKKfAAzBMSnK+dh+Eo6e0mowheMIo84nUc5JpE1f9wPG4eiVrYSoCGA8EAMcA75suRnCmo8NrCG+8ZWCqoj0PU17WYcNi2b+/DvZsmUDX355CIPBwPIHJlNUMQSAVW90fS1Xf6CwKiLdtnt3FiR8F/YDUVBRa3cEzwpgS+NJdijPaXy8NbDx2InGP3c2e70ZaHCcd7HGDs7VquqBypLeeyMiIgFk+/Z0Ptqe3uK43VbL5s3rKT5T7Hhtt2Oz2ZhxnWOCwJoA7WVVWBWRbjNVlWI6uBtr3I1w2sjJCojasZXKSwaMpYVgMAAGykrPABB6qXH/13OO13zU7PW21QDY4m7k+CXgZBVgw3Qul5Av32dlRrHX3puIiLesWLWWzKM1pFzb8WomDQ3VrQZVgLNnz1JcXOw2/vX48SKOHy9i7rw7+d1z3+L5N7MCbidAhVUR6ZHwjN+5vs4I/Q589Gear7732JI0Vq5exw/vi2Ll6nUsb3xN4U73E49luP7MCP0O/f/6SO82XkTEDzjH4p8pbeDmiRHtbgxgbahus2z2nAXMmTObvXu28/4Hm9zK5sxxTIjKOHg54MKq0dcNEJG+Y+Xqdax/42lmTrvW100REfE7xWVWPsysoqike4/qP9qezuv/8xuKik57uGW+pZ5VEfGKlKREUpMnsfihF1i+JM3XzRER8VsfZlYRG21qc0H/226d3uE1xo2L4/jxIk83zScUVkWk12Vk5bj+VFAVEelYcZmVV9dd4q6UAW7DAkwh/Zg9p+M1TmcDD/7L0+0OKQgUgf8ORMTvNR0fFWhjpUREfKl5L2tIiHMR687VTTKHd2rilj9TWBURERHxY8VlVt7LuEy/VWu7XDc7r5YzpQ2uus4nXYFEYVVERETEzxWXWd128PNWXX+g1QBERERExG8prIqIiIiI31JYFRERERG/pbAqIiIiIn5LYVVERERE/JbCqoiIiIj4LYVVEREREfFbCqsiIiIi4rcUVkVERETEbymsioiIiIjf8kpYjYyM9MZtRERERCTIqGdVRERERPyWwqqIiIiI+C2vhNVlDy/wxm1EREREJMioZ1VERERE/JbCqoiI9CkpSYksX5JGSlIiKUmJrmMAy5eksXxJmi+bJyLNKKyKiEifkpo8iZWr17m+Xr4kjdTkSQBkZOUwc9q1vmyeiN/z9ipPCqsiItInZWZbAPeAmplt4T9fe9/V0yoivhfi6waIiIh4W9NH/c7QmpKUSGryJGZOu5bFD73gq6aJSDMGu91u98aNBkx6wBu3EREREZFedOstU9n0x6e9dj/1rIqIiFc4ey5b899vbCTthhJCBw3hxKWJbudlZOUwdnAu9RXlWCpimX/7HW51Ky8foyR3B6GDhhBnvosVT97jKvt4zyH+9+3nqa8o5/Dp/mR/stat7lM/+y9KcncAMPGWh3j2+99wK3/wu3cCEDpoCH/4zdtuZUuXP8vlC4cAuOvbD5M2b5Hbff/4m6d5+J5BvL62gvik77X59+IcPysSKG6+Id6r91PPqoiIeMXyJWlMHF7DX9f8b6vlC6cPASCvqIa8omq3MnNcP8xxEQBs2lPeZt2Nu8swGAyt1rWcrCb/VE2X6t56Qygl1uuou3ikRd2R0Q2MG+8Y27o7q6DNuscKc6m+UtXivmVVocxa9KDCqgSc5UvS3H4p7G2aYCUiIl6VcktSq8c/z4/geMV46kyjW5TlFVVzvGI8xyvG01ofi7PusJiRbdYNi5rc5bo7/l4P0GrdM2UhnC4zcbE2qtW6n+eHAxATM7LV+0YPqG9xTERaUlgVERHvsttbDW8l54sBGBA5sN3y1oKhsyxmeKxX6544ltdm3StVlyk5X8yAyIEMi4ltURfg4w1vtXpcRK5SWBUREb9RVVUJtB4MnWW9G0hbhsrO1nUOCWheVlVVSczwkfTv33JtyugB9UT1Uw+rSHsUVkVExOvami7RNBg2d6XqcqfCbHyCudXrX7pYSmRkJKNGj231vpGRkcQnJLZbd+p1X221bn19LcNHxDI4akir5c731Zqb4i62WdZXOHcTc+4sJtKUVgMQEfGRlKRE1xqffZHdbm8xKelK1WWOHNrfZh3nY/fWNK3b/LoAp0+d4PSpE23W/2zvzm7Xzcs93G67rlRdbrMcIGnURbJPR7V7TjBLTZ5ERlYOK1evY/mStD79cyEtqWdVRMQHli9J44eP3e3rZviUlxajCQh9dThA017UzGwL6994WqsjSAsKqyIiPrJz31FfN0H8SF8dDuDcTWz9G0+zc99Rt93FREDDAEREvMrZk5SRldPmAvl9SWtDAfqyuYklfF4UxcXqUF83pV3tbfDQXU1/eetuYFWvbHBSWBUR8aLMbEu3xqq2FQ4C9cM5Lm4kRUVn+FpKstfuFze65aQsf/Tmh4dZsznX181oV2ryJFKnDoBmv2icOFdH0fk61+u4YaGMHRHuep1x8OrY3YysHOorTriucbq0geLSBld5bLSJUUNDOyxzmnGzfvkLVgqrIiKd4HxE2VNxMWGMHR7GiYXXU3S+zi2Apl53dWmjph/qTes1FR8/IWDD6pjRjrA63UthVTxv27ZNGI0tRxPuOXJ197HRQ0OIGxbi6j0vKqmnqORq6EyZ3M+tZ7153TExoW2WNb0ugPXyCe7+WiTv725/MpsEHoVVEZFOsF0povbcLrdje45Uk2Vx34Lzia9fXbro5Q/ctwVNToxg+uR+5B9svW5tk7pNP5gB4oaFEDes2aPhOQu6/D78ibd6VaX32Gy2FoF1+uR+bZ4fNyy05fdxJ+u2V9b0+gqswUdhVUSkm6ZP7tfuB2jT4NrVup35YD5W2PYyTiLe0lpg9SUF1uDjP99dIiLSJYWF+b5uggjgCKz+xBlYJTgorIqIiEiP+du6uQqswUNhVURERHrMbrcrsEqv0JhVEZEAlpwY0WKiloivOMOqv6ydO7txEuLts+p44mfv+rg10l0KqyIiIuIxs+csYO7chb5uRgsKq4FLYVVEpBPi4yd4bamoOV24z4pVa8myBOZaqxLcGuqv0NBQ3fGJvchoNBAWHu3TNkjPKayKiHRCfLyZ+Hizr5sh4hdmTruWLR/saPccq7WGiH7XeKlF8PQPvt/i2G23TmfBnd/xWhukd3gtrEZGRnL5stY8E5HAVlNd6usm8JOf/ISf//znhIZF+bop0kfNmj6VLR90fF56+gYWLFjU4nhenoX8fAtmcyITJiS2Wg9otW5+voW8vLbrSvBRz6qISBcYDAbCI/RYUaQzNm/eSH5+Ho8//qTb8by8XDZv3sjmzQYef/zJFqFz06b1GI3GVutaLO3XleCjpatERHpo6dJHWbr00VbL0tM3sHTpo66eIk/WDVR79mb7ugniJTabjfx8C6+8ssrtuNk80bXU1SuvrCI/39KsPLHbdSX4eC2sPnr/LG/dSkRE/FTJZT3Q62ucobPpL11mcyILFixqM3Q+8cRTbnWbBtaO6krwUc+qiAQZQy/9J55QVhWC3W73m3U4pXc5Q6fdbm8cEnA1VC5cuBizOdG1Nmt6+sZW67YWWJvWdQZWm82/NiQQz1FYFZEAELyhsr0df5xlmzdvbPOcQFRQGsmevdkaDhBE2lopw2xO5IknnsJutzN9+jSys/e4lT/xxFOuR/4xMUM4fPhAi7oAo0ePIiZmCEcOH2D79nS2b09n8uTJmExG17WTkpMBWLJkaS+9S/EVPY8RET8ReEHTk1qbNW02T2TLlk0+apHnZWTlkJo8iclTplJ3bp+vmyM98PGeQ8THmykszAMgPsFMfIKZ7dvcv1+f+fcnADCZjKSkTCMsLMJ1rCmTycj8+Xfy+edZvP3nN9zK+kWEMnr0KO6993usXftH9mfvdyurrqln/vw7sdlsfLE/m/gEM0uWLGX16l97+m1Lo9CwUK/eT2FVRLws8EPp9u3pbq+XLVuK3W5rcRxgxIhrePbZZzh96pRb+UeNX8+YkcLMmbeyc+enrX6IP/vsv2Oz2VotCzSZ2RYysx2PgWdP0FCAQLb4oReIjTbxjdRIAKwNV7j99tuw5H7pdl58/HjGx08CYODAa9i2tfWnBGGhJrZs2cDZ4rMtykwmIyXnz/LOO2/Sr18kv3z+ZVdZ+qY1HDp0hOd/+TPAsVpHyfkcBg6E6dNv9sh7lZbCw8K9ej+FVRHpRcETRlasWsuKJ+8BrgZNp6lT/w2r1ep63bQ8+aZkhg8fTn6+hf3799OcAWhosEKT0QDx8RMY3/hYddCgYWzf5v4BP3fevJ6+HZ8rKI1kwtAqXzdDeqC4zMp7GZf5Rmok+/fv51hhAQbD1Z/6kydPAe47smVnZ2MwGFr8omIyGfli/xdt36u4mOLiYgDOFhfz8L84fnmbOXM6xcVnKS0td1131arfAo5hNIZ+w9lnWeuptyw+orAqIh4UPOG0s66bOokRw4eCIZJRoxIA97Ca9XkWWZ9ntVk/Ozub7Gz3sZvj481uH/DTpk1h9+5drteHDv6dW2fO9NRb8InymjDsdm0UE+iKy6xkHq0h5VqoqKjEYDBQVHSGjz7a7DqnsDDPbUxrTyfYFRbm8/r/vMzpqliWPzwNm83mGt9tMBjcxoHbq8/x9tZ8iksbun0/8T2FVRHpgb4TTo8dL2D79nSONY7R69V7FeYBC9yONf2AP3euhB//+McArN11mZb/H/x/VvSlau+OeZPek51Xy+ihIcQNc0SK5kH09f95BSJieHlNrmvogM1mw2js/hzvwsJ8ikqOEpO8jthrQvjG1wZw263T+XTHnhb3v2fGQNbuqlRg9aBlDy/o+CQPUlgVkS7oO+G0uePHCvho+5kWxz8/VIxl1YdgCPPYvQoL8xkw6UHX6+f/re1e1FHXmFr5EA6M8FpQGunrJoiHfJhZxV0pA9oMrNScJ/aaEIpLGxp7YiOw2WzMnXdnj+57tiaLzGwL72VcZsVPUvjk093MmbuwxXmz58Bd3/9/PbqX+I7Cqoh0oO8G1M6YkzqJby3b4nbsia9HefQeZ8vt3HbrdHbszOzmFZr+P/Sf4Fpe47mAL773WW4NccMimT1nAXNbCYzhq9aycvU6t57YpsNduiPj4GUysy0Ul10dM972NRVWA5XCqog0o3DamnHjE5g954YWx0eNjAbcw+rsOQuIj5/Q5tqTnfHyBw+6vZ49ZwHzF367xXkrVq0ly7K+C1f2n17XS9WhvPnhYbdjB/MvcDi/1Ectkp5wTriaM7f18oysHNfXzp5YTxqa9B8kmb07S128Q2FVRFBA7dj4cQmt9ths29ly8lRPe4uay/ziBDv2FTBnRpJHr+vg217XNZtzvX5P6T3FZVbeXv93dh9qudKDc9kypw8zq1ixqvWZ+hlZOS3O74zsvFoGTHqgy/XEvymsivRZCqiesDv7WI+v8fGew+zcd6TN8n0HTvL879LJyCpsUZaR5cmw5/ye8J+hAhJ43t16BGj7+7mplavX9W5jJCgY7O3t9edBKxrHqoiIrymkSlcouIqIu6qcP3v1fupZFekTFFClu/xzcpaI9B0KqyJBSwFVPE3DBETE+xRWRYKOQqr0NvW2ioj3KKyKBA2FVPEF9baKSO9SWBUJaAqo4i8UWkWkdyisigQkhVTxVxoiICKepbAqElAUUjvk7b8i5bF2qLdVRHpOYVUkICik+u1fQWfb1afzmkKriHSfwqqIX/PXhNaLgvUtt/e++kyGU2gV6UhoWCjhYeEtjj96/ywftMY/KKyK+KVgTWxN9IG32Gmt/V0EdZ5TaO2syMjIFseSpo7j5hvifdAa72krsN3ylQmkJpt90CLxJYVVEb8SpAkuSN9Wr2r2dxYZGdlqtnv0/tu90x4fai2wKbSI9B0KqyJ+ofNprq0eB0dvy3hPNsrvhIaHER4a1uL4socX+KA1IiLiDQqrAU6PiNypt0VERCS4eC2szpx2ba9du7XABuptEREREQl0BrvdrhHuIiIiIuKXjL5ugIiIiIhIWxRWRURERMRvKayKiIiIiN9SWBURERERv6WwKiIiIiJ+S2FVRERERPyWwqqIiIiI+C2FVRERERHxWwqrIiIiIuK3FFZFRERExG8prIqIiIiI31JYFRERERG/pbAqIiIiIn5LYVVERERE/JbCqoiIiIj4rf8PrZqPA0epXhcAAAAASUVORK5CYII=;" vertex="1" parent="1">
          <mxGeometry x="179" y="397" width="469.95" height="375" as="geometry" />
        </mxCell>
        <mxCell id="pvMw-32eOwfr4TiHnG_3-7" style="edgeStyle=orthogonalEdgeStyle;rounded=0;orthogonalLoop=1;jettySize=auto;html=1;exitX=0.5;exitY=1;exitDx=0;exitDy=0;fontSize=18;strokeWidth=4;" edge="1" parent="1" source="pvMw-32eOwfr4TiHnG_3-5" target="pvMw-32eOwfr4TiHnG_3-1">
          <mxGeometry relative="1" as="geometry" />
        </mxCell>
        <mxCell id="pvMw-32eOwfr4TiHnG_3-5" value="&lt;b&gt;&lt;font style=&quot;font-size: 18px&quot;&gt;CAN Communication Ports&lt;/font&gt;&lt;/b&gt;" style="rounded=1;whiteSpace=wrap;html=1;" vertex="1" parent="1">
          <mxGeometry x="193" y="280" width="440" height="60" as="geometry" />
        </mxCell>
        <mxCell id="pvMw-32eOwfr4TiHnG_3-8" value="&lt;b&gt;R&lt;br&gt;e&lt;br&gt;l&lt;br&gt;a&lt;br&gt;y&lt;br&gt;s&lt;/b&gt;" style="rounded=1;whiteSpace=wrap;html=1;fontSize=18;" vertex="1" parent="1">
          <mxGeometry x="20" y="397" width="80" height="373" as="geometry" />
        </mxCell>
        <mxCell id="pvMw-32eOwfr4TiHnG_3-10" value="" style="curved=1;endArrow=classic;html=1;rounded=0;fontSize=18;strokeWidth=4;fillColor=#ffe6cc;strokeColor=#d79b00;exitX=0.5;exitY=0;exitDx=0;exitDy=0;" edge="1" parent="1" source="pvMw-32eOwfr4TiHnG_3-11">
          <mxGeometry width="50" height="50" relative="1" as="geometry">
            <mxPoint x="520" y="850" as="sourcePoint" />
            <mxPoint x="490" y="650" as="targetPoint" />
            <Array as="points">
              <mxPoint x="530" y="740" />
              <mxPoint x="540" y="700" />
              <mxPoint x="500" y="680" />
            </Array>
          </mxGeometry>
        </mxCell>
        <mxCell id="pvMw-32eOwfr4TiHnG_3-11" value="&lt;b&gt;ECU&lt;/b&gt;&lt;br&gt;(DB50)" style="rounded=0;whiteSpace=wrap;html=1;fontSize=18;" vertex="1" parent="1">
          <mxGeometry x="450" y="860" width="120" height="60" as="geometry" />
        </mxCell>
      </root>
    </mxGraphModel>
  </diagram>
</mxfile>
